<svg width="21" height="26" viewBox="0 0 21 26" fill="#FEAD00" xmlns="http://www.w3.org/2000/svg">
<path d="M19.2293 9.6707C18.6727 8.85276 17.9268 8.20452 17.0548 7.77329C17.1645 7.47838 17.2276 7.16122 17.2276 6.82736C17.2276 5.78128 16.6216 4.83813 15.6947 4.40969C15.4397 2.55678 13.8575 1.13789 11.9901 1.13789C11.5624 1.13789 11.1428 1.21023 10.7425 1.35768C10.0323 0.503567 8.98204 0 7.87697 0C6.49495 0 5.23632 0.770652 4.58644 1.98923C4.31771 1.92802 4.04076 1.89742 3.7638 1.89742C1.70173 1.89742 0.0235596 3.60008 0.0235596 5.69225C0.0235596 6.75224 0.454071 7.7093 1.14508 8.39927V21.8342C1.14508 23.6009 2.56276 25.0392 4.304 25.0392H12.1985C13.9398 25.0392 15.3575 23.6009 15.3575 21.8342V18.5402C16.6353 18.3677 17.8144 17.7528 18.7028 16.7874C19.679 15.7302 20.2165 14.3475 20.2165 12.898C20.2165 11.7378 19.8765 10.6222 19.2293 9.6707ZM12.1985 24.2714H4.304C2.97956 24.2714 1.89917 23.178 1.89917 21.8342V8.98352C2.44759 9.30625 3.0865 9.48987 3.7638 9.48987C4.67967 9.48987 5.55989 9.14766 6.23993 8.53559C6.73351 9.13375 7.4684 9.48987 8.2499 9.48987C9.11367 9.48987 9.90339 9.06698 10.3887 8.3631C10.8878 8.60515 11.4335 8.73034 11.9874 8.73034C12.2232 8.73034 12.4618 8.7053 12.7031 8.65801C13.1967 9.1894 13.874 9.48708 14.6006 9.48987V21.8342C14.6006 23.178 13.523 24.2714 12.1985 24.2714ZM13.1391 7.99586L12.9855 7.79833L12.7442 7.86232C12.4892 7.92909 12.2342 7.96526 11.9874 7.96526C11.4472 7.96526 10.9152 7.81224 10.4463 7.52568L10.0981 7.31145L9.91436 7.68148C9.59354 8.32415 8.95737 8.722 8.2499 8.722C7.57534 8.722 6.95288 8.34919 6.62108 7.75103L6.36058 7.27807L6.00685 7.68704C5.43923 8.34641 4.61934 8.722 3.7638 8.722C2.11853 8.722 0.777641 7.36153 0.777641 5.69225C0.777641 4.02297 2.11853 2.6625 3.7638 2.6625C4.07092 2.6625 4.37804 2.7098 4.67418 2.80718L5.0005 2.9129L5.1376 2.59295C5.61199 1.48288 6.68689 0.765087 7.87697 0.765087C8.83945 0.765087 9.74709 1.24083 10.3092 2.04209L10.4902 2.29804L10.7726 2.17007C11.1593 1.99479 11.5706 1.90576 11.9901 1.90576C13.5449 1.90576 14.8502 3.13825 14.9653 4.71294L14.9845 4.96333L15.2204 5.04679C15.9689 5.3111 16.4735 6.02889 16.4735 6.83293C16.4735 7.87623 15.6372 8.72478 14.6089 8.72478C14.0303 8.722 13.4956 8.45769 13.1391 7.99586ZM15.3575 17.7667V9.37858C15.8922 9.21722 16.3528 8.88614 16.6846 8.44657C18.3793 9.25895 19.4597 10.9755 19.4597 12.898C19.4597 15.3351 17.6883 17.3967 15.3575 17.7667Z" fill="#FF9800"/>
<path d="M4.89074 20.8634V9.8656H4.13392V20.8634C4.13392 21.0693 3.96939 21.239 3.76373 21.239C3.56082 21.239 3.39355 21.072 3.39355 20.8634V9.8656H2.63947V20.8634C2.63947 21.4921 3.14401 22.0041 3.76373 22.0041C4.38619 22.0041 4.89074 21.4921 4.89074 20.8634Z" fill="#FF9800"/>
<path d="M6.75549 22.0041C7.3752 22.0041 7.87975 21.4921 7.87975 20.8634V9.8656H7.12567V20.8634C7.12567 21.0693 6.96115 21.239 6.75549 21.239C6.54983 21.239 6.3853 21.072 6.3853 20.8634V9.8656H5.62848V20.8634C5.63122 21.4921 6.13577 22.0041 6.75549 22.0041Z" fill="#FF9800"/>
<path d="M9.74712 22.0041C10.3668 22.0041 10.8714 21.4921 10.8714 20.8634V9.8656H10.1146V20.8634C10.1146 21.0693 9.95004 21.239 9.74438 21.239C9.54146 21.239 9.37419 21.072 9.37419 20.8634V9.8656H8.61737V20.8634C8.62011 21.4921 9.12466 22.0041 9.74712 22.0041Z" fill="#FF9800"/>
<path d="M13.1062 20.8634C13.1062 21.0693 12.9417 21.239 12.736 21.239C12.5331 21.239 12.3658 21.072 12.3658 20.8634V9.8656H11.609V20.8634C11.609 21.4921 12.1136 22.0041 12.7333 22.0041C13.353 22.0041 13.8575 21.4921 13.8575 20.8634V9.8656H13.1007V20.8634H13.1062Z" fill="#FF9800"/>
<path d="M2.2666 5.31406H3.02342C3.02342 4.89953 3.35796 4.56011 3.76654 4.56011V3.79224C2.93842 3.79224 2.2666 4.47386 2.2666 5.31406Z" fill="#FF9800"/>
<path d="M12.3631 22.7552H4.13953V23.5231H12.3631V22.7552Z" fill="#FEAD00"/>
</svg>
