<svg width="24" height="23" viewBox="0 0 24 23" fill="none" xmlns="http://www.w3.org/2000/svg">
<path d="M7.16863 14.8014C7.05357 14.8014 6.95514 14.7661 6.8734 14.6955C6.79166 14.6248 6.75079 14.5249 6.75079 14.3957C6.75079 14.2787 6.79266 14.1823 6.87644 14.1066C6.96017 14.0309 7.0576 13.993 7.16863 13.993C7.27556 13.993 7.37043 14.0274 7.45321 14.096C7.53594 14.1646 7.57733 14.2646 7.57733 14.3957C7.57733 14.5229 7.53694 14.6223 7.45624 14.694C7.3755 14.7656 7.27959 14.8014 7.16863 14.8014ZM7.57733 15.6553V18.0441C7.57733 18.2096 7.53798 18.3347 7.45927 18.4195C7.38057 18.5043 7.28063 18.5466 7.15953 18.5466C7.03844 18.5466 6.94002 18.5032 6.86435 18.4165C6.78863 18.3297 6.7508 18.2056 6.7508 18.0441V15.6794C6.7508 15.516 6.78863 15.3929 6.86435 15.3101C6.94002 15.2274 7.03844 15.186 7.15953 15.186C7.28062 15.186 7.38057 15.2274 7.45927 15.3101C7.53798 15.3929 7.57733 15.5079 7.57733 15.6553Z" fill="white"/>
<path d="M11.3714 14.7746H10.3904V17.9991C10.3904 18.1848 10.349 18.3226 10.2663 18.4124C10.1835 18.5021 10.0765 18.5471 9.94533 18.5471C9.81214 18.5471 9.70358 18.5017 9.61988 18.4109C9.53607 18.32 9.4942 18.1828 9.4942 17.9991V14.7746H8.51324C8.35982 14.7746 8.24579 14.7408 8.17111 14.6732C8.09644 14.6056 8.05908 14.5163 8.05908 14.4053C8.05908 14.2902 8.09796 14.1994 8.17566 14.1328C8.25333 14.0662 8.36588 14.0328 8.51324 14.0328H11.3714C11.5268 14.0328 11.6423 14.0672 11.718 14.1358C11.7937 14.2044 11.8316 14.2943 11.8316 14.4053C11.8316 14.5163 11.7932 14.6056 11.7165 14.6732C11.6398 14.7408 11.5247 14.7746 11.3714 14.7746Z" fill="white"/>
<path d="M14.2226 17.0701H12.6058C12.6078 17.2578 12.6457 17.4233 12.7194 17.5666C12.793 17.7099 12.8909 17.8179 13.0131 17.8905C13.1352 17.9632 13.2699 17.9995 13.4173 17.9995C13.5161 17.9995 13.6065 17.988 13.6882 17.9647C13.77 17.9415 13.8492 17.9052 13.9259 17.8557C14.0026 17.8063 14.0732 17.7533 14.1378 17.6968C14.2024 17.6403 14.2862 17.5635 14.3891 17.4667C14.4315 17.4303 14.4921 17.4122 14.5708 17.4122C14.6556 17.4122 14.7242 17.4354 14.7767 17.4818C14.8291 17.5283 14.8554 17.5938 14.8554 17.6786C14.8554 17.7533 14.8261 17.8406 14.7676 17.9405C14.709 18.0404 14.6208 18.1363 14.5027 18.2281C14.3846 18.32 14.2363 18.3962 14.0576 18.4567C13.879 18.5173 13.6736 18.5475 13.4415 18.5475C12.9106 18.5475 12.4978 18.3962 12.2032 18.0934C11.9084 17.7906 11.7611 17.3799 11.7611 16.8611C11.7611 16.6169 11.7975 16.3903 11.8701 16.1814C11.9428 15.9725 12.0488 15.7934 12.188 15.644C12.3273 15.4947 12.4988 15.3801 12.7027 15.3004C12.9066 15.2207 13.1326 15.1808 13.3809 15.1808C13.7038 15.1808 13.9809 15.2489 14.212 15.3851C14.4431 15.5214 14.6162 15.6975 14.7312 15.9135C14.8463 16.1295 14.9038 16.3494 14.9038 16.5735C14.9038 16.7814 14.8443 16.9162 14.7252 16.9777C14.6061 17.0393 14.4386 17.0701 14.2226 17.0701ZM12.6058 16.6007H14.1045C14.0843 16.3182 14.0081 16.1068 13.8759 15.9665C13.7437 15.8262 13.5696 15.756 13.3537 15.756C13.1478 15.756 12.9787 15.8272 12.8466 15.9695C12.7143 16.1118 12.6341 16.3222 12.6058 16.6007Z" fill="white"/>
<path d="M18.5647 17.5242C18.5647 17.6271 18.5339 17.7371 18.4723 17.8542C18.4107 17.9713 18.3169 18.0828 18.1907 18.1888C18.0646 18.2947 17.9056 18.38 17.7139 18.4446C17.5221 18.5092 17.3061 18.5415 17.066 18.5415C16.5553 18.5415 16.1566 18.3927 15.87 18.0949C15.5834 17.7972 15.4401 17.3981 15.4401 16.8975C15.4401 16.5583 15.5057 16.2586 15.6369 15.9983C15.7681 15.7379 15.9578 15.5365 16.2061 15.3942C16.4544 15.2519 16.7511 15.1808 17.0962 15.1808C17.3102 15.1808 17.5065 15.2121 17.6851 15.2746C17.8637 15.3372 18.0151 15.418 18.1393 15.5168C18.2634 15.6158 18.3583 15.7212 18.4239 15.8332C18.4894 15.9453 18.5223 16.0497 18.5223 16.1466C18.5223 16.2455 18.4854 16.3293 18.4118 16.3979C18.3381 16.4666 18.2487 16.5008 18.1438 16.5008C18.0752 16.5008 18.0182 16.4832 17.9727 16.4479C17.9273 16.4125 17.8764 16.3555 17.8198 16.2768C17.7189 16.1234 17.6135 16.0084 17.5035 15.9316C17.3934 15.8549 17.2537 15.8166 17.0841 15.8166C16.8399 15.8166 16.6431 15.912 16.4937 16.1027C16.3443 16.2935 16.2697 16.5544 16.2697 16.8853C16.2697 17.0408 16.2889 17.1836 16.3272 17.3138C16.3655 17.444 16.4211 17.555 16.4937 17.6468C16.5664 17.7387 16.6542 17.8083 16.7571 17.8557C16.8601 17.9032 16.9731 17.9269 17.0962 17.9269C17.2617 17.9269 17.4036 17.8885 17.5216 17.8118C17.6397 17.7351 17.7442 17.6181 17.835 17.4606C17.8854 17.3678 17.9399 17.2951 17.9985 17.2426C18.057 17.1902 18.1287 17.1639 18.2135 17.1639C18.3144 17.1639 18.3981 17.2022 18.4647 17.279C18.5314 17.3557 18.5647 17.4374 18.5647 17.5242Z" fill="white"/>
<path d="M19.9396 14.4596V15.6858C20.0446 15.5647 20.1471 15.4689 20.247 15.3982C20.3469 15.3276 20.4574 15.2746 20.5785 15.2392C20.6996 15.204 20.8298 15.1863 20.969 15.1863C21.1789 15.1863 21.3652 15.2307 21.5277 15.3195C21.6901 15.4083 21.8178 15.5375 21.9106 15.707C21.9692 15.806 22.0086 15.9164 22.0287 16.0386C22.0489 16.1607 22.059 16.3015 22.059 16.4609V18.0444C22.059 18.2099 22.0212 18.335 21.9455 18.4198C21.8698 18.5046 21.7694 18.547 21.6442 18.547C21.3717 18.547 21.2355 18.3794 21.2355 18.0444V16.6486C21.2355 16.3842 21.1961 16.1808 21.1174 16.0386C21.0387 15.8962 20.8893 15.8251 20.6693 15.8251C20.522 15.8251 20.3892 15.867 20.2712 15.9508C20.1531 16.0345 20.0648 16.1491 20.0062 16.2944C19.9618 16.4175 19.9396 16.6365 19.9396 16.9514V18.0444C19.9396 18.2079 19.9028 18.3325 19.8291 18.4183C19.7554 18.504 19.653 18.547 19.5218 18.547C19.2494 18.547 19.1131 18.3794 19.1131 18.0444V14.4596C19.1131 14.2921 19.1489 14.1664 19.2206 14.0827C19.2922 13.9989 19.3926 13.957 19.5218 13.957C19.653 13.957 19.7554 13.9994 19.8291 14.0842C19.9028 14.169 19.9396 14.2941 19.9396 14.4596Z" fill="white"/>
<path d="M7.43379 19.4609V22.0858H8.91477C9.03287 22.0858 9.12347 22.1146 9.18661 22.172C9.24975 22.2293 9.28136 22.3015 9.28136 22.3884C9.28136 22.477 9.25015 22.5488 9.18785 22.6037C9.1255 22.6586 9.03446 22.6861 8.91477 22.6861H7.1509C6.99177 22.6861 6.87738 22.6509 6.80769 22.5803C6.73797 22.5098 6.70312 22.3958 6.70312 22.2384V19.4609C6.70312 19.3133 6.73633 19.2026 6.80278 19.1288C6.8692 19.055 6.95652 19.0181 7.06477 19.0181C7.17465 19.0181 7.26361 19.0546 7.3317 19.1275C7.39975 19.2005 7.43379 19.3117 7.43379 19.4609Z" fill="white"/>
<path d="M11.4111 22.3683C11.2487 22.4946 11.0917 22.5893 10.94 22.6524C10.7883 22.7155 10.6181 22.7471 10.4295 22.7471C10.2573 22.7471 10.106 22.7131 9.97566 22.645C9.84527 22.577 9.74477 22.4847 9.67429 22.3683C9.60377 22.2518 9.56848 22.1256 9.56848 21.9894C9.56848 21.8058 9.62667 21.6491 9.74318 21.5195C9.8596 21.39 10.0195 21.303 10.2229 21.2588C10.2655 21.2489 10.3713 21.2268 10.5403 21.1923C10.7091 21.1579 10.8539 21.1263 10.9745 21.0976C11.095 21.0689 11.2258 21.0341 11.3668 20.9931C11.3586 20.8159 11.3229 20.6859 11.2598 20.6031C11.1966 20.5203 11.0659 20.4789 10.8675 20.4789C10.6968 20.4789 10.5685 20.5027 10.4824 20.5502C10.3963 20.5978 10.3225 20.6692 10.261 20.7643C10.1995 20.8594 10.156 20.9221 10.1306 20.9525C10.1052 20.9828 10.0507 20.998 9.96704 20.998C9.89157 20.998 9.82639 20.9738 9.77147 20.9254C9.71648 20.877 9.68905 20.8151 9.68905 20.7397C9.68905 20.6216 9.73088 20.5068 9.8145 20.3953C9.89815 20.2838 10.0285 20.1919 10.2057 20.1197C10.3828 20.0476 10.6034 20.0115 10.8675 20.0115C11.1626 20.0115 11.3947 20.0463 11.5636 20.116C11.7325 20.1858 11.8519 20.296 11.9216 20.4469C11.9913 20.5978 12.0261 20.7979 12.0261 21.0472C12.0261 21.2046 12.0257 21.3383 12.0249 21.4482C12.0241 21.5581 12.0228 21.6803 12.0212 21.8147C12.0212 21.9411 12.0421 22.0726 12.084 22.2096C12.1258 22.3465 12.1467 22.4347 12.1467 22.474C12.1467 22.5429 12.1143 22.6057 12.0495 22.6622C11.9847 22.7188 11.9113 22.7471 11.8293 22.7471C11.7604 22.7471 11.6924 22.7147 11.6251 22.6499C11.5579 22.5852 11.4865 22.4913 11.4111 22.3683ZM11.3668 21.3965C11.2685 21.4326 11.1253 21.4707 10.9375 21.5109C10.7497 21.5511 10.6198 21.5807 10.5476 21.5995C10.4754 21.6183 10.4066 21.6553 10.341 21.7102C10.2754 21.7652 10.2426 21.8418 10.2426 21.9402C10.2426 22.0419 10.2811 22.1284 10.3582 22.1997C10.4352 22.2711 10.5361 22.3068 10.6608 22.3068C10.7936 22.3068 10.9162 22.2777 11.0286 22.2194C11.1409 22.1612 11.2233 22.0862 11.2758 21.9943C11.3365 21.8926 11.3668 21.7254 11.3668 21.4924V21.3965Z" fill="white"/>
<path d="M13.2611 19.4019V20.4277C13.3874 20.2965 13.5161 20.1961 13.6474 20.1263C13.7785 20.0567 13.9409 20.0218 14.1345 20.0218C14.3575 20.0218 14.5531 20.0747 14.7212 20.1805C14.8893 20.2863 15.0197 20.4396 15.1124 20.6405C15.205 20.8414 15.2514 21.0796 15.2514 21.3552C15.2514 21.5585 15.2255 21.7451 15.1739 21.9148C15.1222 22.0846 15.0472 22.2318 14.9488 22.3564C14.8503 22.4811 14.731 22.5775 14.5908 22.6455C14.4506 22.7136 14.296 22.7476 14.1271 22.7476C14.0238 22.7476 13.9266 22.7353 13.8356 22.7107C13.7445 22.6861 13.667 22.6537 13.6031 22.6135C13.5391 22.5733 13.4846 22.532 13.4395 22.4893C13.3944 22.4467 13.3349 22.3827 13.2611 22.2974V22.3638C13.2611 22.4901 13.2308 22.5856 13.1701 22.6504C13.1094 22.7152 13.0324 22.7476 12.9388 22.7476C12.8437 22.7476 12.7679 22.7152 12.7113 22.6504C12.6547 22.5856 12.6264 22.4901 12.6264 22.3638V19.4314C12.6264 19.2953 12.6539 19.1924 12.7088 19.1226C12.7637 19.0529 12.8405 19.0181 12.9388 19.0181C13.0422 19.0181 13.1217 19.0513 13.1775 19.1177C13.2332 19.1841 13.2611 19.2788 13.2611 19.4019ZM13.2931 21.397C13.2931 21.6644 13.3542 21.8698 13.4764 22.0133C13.5985 22.1568 13.7589 22.2285 13.9573 22.2285C14.1263 22.2285 14.2718 22.1552 14.394 22.0084C14.5162 21.8616 14.5773 21.6512 14.5773 21.3773C14.5773 21.2002 14.5518 21.0477 14.501 20.9198C14.4502 20.7918 14.378 20.693 14.2845 20.6233C14.191 20.5536 14.082 20.5187 13.9573 20.5187C13.8294 20.5187 13.7154 20.5536 13.6154 20.6233C13.5153 20.693 13.4366 20.7939 13.3792 20.9259C13.3218 21.0579 13.2931 21.2149 13.2931 21.397Z" fill="white"/>
<path d="M17.953 21.8693C17.953 22.0547 17.9079 22.2134 17.8177 22.3454C17.7275 22.4774 17.5943 22.5774 17.418 22.6455C17.2416 22.7135 17.0272 22.7476 16.7746 22.7476C16.5336 22.7476 16.3269 22.7107 16.1547 22.6369C15.9825 22.5631 15.8554 22.4708 15.7734 22.3601C15.6913 22.2494 15.6504 22.1383 15.6504 22.0268C15.6504 21.953 15.6766 21.8898 15.7291 21.8374C15.7816 21.7849 15.848 21.7586 15.9284 21.7586C15.9989 21.7586 16.053 21.7758 16.0907 21.8103C16.1285 21.8447 16.1645 21.8931 16.199 21.9554C16.2679 22.0751 16.3503 22.1646 16.4462 22.2236C16.5422 22.2826 16.6729 22.3121 16.8386 22.3121C16.9731 22.3121 17.0834 22.2823 17.1695 22.2223C17.2556 22.1625 17.2986 22.094 17.2986 22.0169C17.2986 21.8989 17.2539 21.8127 17.1646 21.7586C17.0752 21.7045 16.928 21.6528 16.723 21.6036C16.4917 21.5462 16.3036 21.486 16.1584 21.4228C16.0132 21.3597 15.8972 21.2764 15.8103 21.1731C15.7233 21.0698 15.6799 20.9427 15.6799 20.7918C15.6799 20.6573 15.7201 20.5302 15.8005 20.4105C15.8808 20.2908 15.9993 20.1952 16.1559 20.1239C16.3125 20.0525 16.5016 20.0168 16.723 20.0168C16.8968 20.0168 17.053 20.0349 17.1916 20.071C17.3302 20.1071 17.4458 20.1555 17.5385 20.2161C17.6311 20.2768 17.7017 20.344 17.7501 20.4178C17.7985 20.4916 17.8226 20.5638 17.8226 20.6343C17.8226 20.7114 17.7968 20.7746 17.7452 20.8238C17.6935 20.873 17.6201 20.8976 17.525 20.8976C17.4561 20.8976 17.3975 20.8779 17.3491 20.8385C17.3007 20.7992 17.2454 20.7401 17.183 20.6614C17.1322 20.5958 17.0723 20.5433 17.0034 20.504C16.9346 20.4646 16.8411 20.4449 16.723 20.4449C16.6016 20.4449 16.5007 20.4707 16.4204 20.5224C16.34 20.5741 16.2998 20.6385 16.2998 20.7155C16.2998 20.7861 16.3294 20.8439 16.3884 20.889C16.4475 20.9341 16.527 20.9714 16.627 21.0009C16.7271 21.0304 16.8648 21.0665 17.0403 21.1092C17.2486 21.16 17.4188 21.2207 17.5508 21.2912C17.6828 21.3617 17.7829 21.4449 17.8509 21.5409C17.919 21.6368 17.953 21.7463 17.953 21.8693Z" fill="white"/>
<path d="M4.83612 20.1411L4.94787 19.9547L4.7307 19.9626L4.65466 19.7591L4.54634 19.9056C2.13062 17.8482 0.64854 14.8642 0.477388 11.7041L0.314148 11.713C0.485311 14.8734 1.9494 17.8601 4.33937 19.9431L4.37497 20.0763L4.19341 20.1957L4.39253 20.2828L4.37272 20.4992L4.56493 20.3978L4.72178 20.5482L4.76235 20.3347L4.97774 20.3059L4.83612 20.1411Z" fill="white"/>
<path d="M2.40182 13.5249L2.25114 13.4451L2.27935 13.277L2.123 13.345L2.00911 13.2181L1.99775 13.2604C1.85097 12.7167 1.77645 12.1544 1.77645 11.5854H1.61298C1.61298 12.1989 1.69821 12.8044 1.86454 13.3886L1.79462 13.3927L1.89574 13.53L1.79737 13.6692L1.96776 13.6758L2.0153 13.8395L2.12665 13.7104L2.28431 13.7753L2.25276 13.6077L2.40182 13.5249Z" fill="white"/>
<path d="M5.74739 16.5375L5.82943 16.3746L5.64813 16.3947L5.5719 16.229L5.47455 16.3832L5.41606 16.3688C4.34926 14.809 3.78506 12.9881 3.78506 11.0864H3.62158C3.62158 13.0504 4.21296 14.9298 5.33044 16.5325L5.21275 16.623L5.38481 16.6836L5.3816 16.866L5.53624 16.7692L5.67682 16.8854L5.6976 16.7042L5.87613 16.6668L5.74739 16.5375Z" fill="white"/>
<path d="M15.3994 9.95595C14.9612 9.46491 14.4759 9.13107 14.1442 8.93657L14.1895 9.17767L13.8048 9.01915L13.533 9.33425L13.417 8.9346L13.0012 8.91857L13.2414 8.57874L12.9947 8.24365L13.4101 8.21954L13.5182 7.81772L13.7961 8.12748L14.1777 7.9615L14.1088 8.37188L14.4764 8.56674L14.3152 8.65628C14.6682 8.86327 15.1766 9.21521 15.6433 9.73827C16.3071 10.4821 16.4156 11.6396 16.4198 11.6885L18.4773 11.7038C18.4672 11.5691 18.3269 9.90941 17.5033 8.76198C16.8914 7.90939 16.3111 7.41752 15.9133 7.14737L16.0321 7.51509L15.4789 7.36544L15.1624 7.84316L14.9346 7.31738L14.3637 7.3678L14.6327 6.86181L14.2374 6.44696L14.8007 6.34178L14.8786 5.77405L15.312 6.14888L15.8044 5.85579L15.7816 6.42838L16.3178 6.63062L16.0376 6.83636C16.4664 7.11733 17.1013 7.64112 17.769 8.57136C18.6794 9.83973 18.7996 11.6176 18.8043 11.6927L20.3028 11.7038C20.289 11.516 20.0242 8.33912 17.986 6.48037C16.17 4.82422 14.4654 4.67487 13.7376 4.61109C13.6565 4.60399 13.586 4.5978 13.5269 4.59086C13.2409 4.5573 12.978 4.54437 12.7508 4.54246L13.0243 5.18853L12.3269 5.06439L11.989 5.6871L11.6512 5.06439L10.9537 5.18853L11.23 4.53616L10.698 4.06825L11.3803 3.87747L11.4145 3.16985L11.989 3.58433L12.5636 3.16985L12.5978 3.87747L13.28 4.06825L13.1001 4.22655C13.2465 4.23459 13.4016 4.24698 13.565 4.26614C13.6214 4.27272 13.6887 4.27859 13.7661 4.28537C14.5269 4.35203 16.3086 4.50812 18.2063 6.23879C20.3962 8.23587 20.6213 11.5527 20.6298 11.6929L21.3791 11.7038C21.3684 11.5459 21.1658 8.88375 19.6968 6.977C18.0357 4.82082 16.0756 4.09177 15.4487 3.90441L15.4498 4.12648L15.1985 3.96469L14.9657 4.15215L14.9354 3.85478L14.6437 3.78965L14.8574 3.58063L14.7264 3.31195L15.0231 3.34868L15.1515 3.07878L15.3077 3.33359L15.5988 3.26571L15.497 3.54672L15.5564 3.59367C16.2439 3.7966 18.2371 4.54651 19.9559 6.77744C21.5255 8.81495 21.6994 11.5769 21.7061 11.6935L23.6603 11.7038C23.3628 5.51419 18.2506 0.587158 11.9873 0.587158C5.72398 0.587158 0.611783 5.51419 0.31427 11.7038H16.0928C16.079 11.5772 15.9545 10.5781 15.3994 9.95595Z" fill="white"/>
</svg>
