<svg width="108" height="23" viewBox="0 0 108 23" fill="none" xmlns="http://www.w3.org/2000/svg">
<path d="M22.4674 0.335327H0.803955V22.4961H22.4674V0.335327Z" fill="white"/>
<path d="M19.4923 4.94596C19.4923 4.94596 17.5112 4.83829 15.4439 4.25686C13.3766 3.67543 11.6354 2.771 11.6354 2.771C11.6354 2.771 9.89418 3.67543 7.82689 4.25686C5.7596 4.83829 3.77845 4.94596 3.77845 4.94596C3.77845 4.94596 3.28316 11.1263 6.03955 15.1532C8.99065 19.4646 11.6354 20.063 11.6354 20.063C11.6354 20.063 14.2801 19.4646 17.2312 15.1532C19.9876 11.1263 19.4923 4.94596 19.4923 4.94596Z" fill="black"/>
<path d="M14.7734 10.3765V9.31053C14.7734 7.80012 13.3826 6.57568 11.667 6.57568C9.95148 6.57568 8.56073 7.80012 8.56073 9.31053V10.3765H7.74243C7.74243 10.3765 7.74243 12.2607 7.74243 14.005C7.74243 15.7493 9.00219 16.2553 9.89586 16.2553C10.5374 16.2553 11.2066 16.2553 11.5332 16.2553C11.6616 16.2553 11.737 16.2553 11.737 16.2553C12.0636 16.2553 12.7328 16.2553 13.3744 16.2553C14.2681 16.2553 15.5278 15.7493 15.5278 14.005C15.5278 12.2607 15.5278 10.3765 15.5278 10.3765H14.7734ZM12.5876 14.9202H11.6401H10.6926L11.0627 13.1699C10.8377 13.0223 10.6926 12.7906 10.6926 12.5299C10.6926 12.0839 11.1168 11.7224 11.6401 11.7224C12.1634 11.7224 12.5876 12.0839 12.5876 12.5299C12.5876 12.7906 12.4425 13.0223 12.2176 13.1699L12.5876 14.9202ZM13.8689 10.3765H11.6509H11.6194H9.4221V9.25131C9.4221 8.20175 10.4176 7.35092 11.6455 7.35092C12.8735 7.35092 13.8689 8.20175 13.8689 9.25131L13.8689 10.3765Z" fill="white"/>
<path d="M29.1517 9.31653H30.0368L31.4018 13.6217H31.4093L32.8194 9.31653H33.6294L31.8443 14.5667H30.9443L29.1517 9.31653Z" fill="white"/>
<path d="M38.4269 9.99905H35.5093V11.5591H37.3468V12.2266H35.5093V13.8992H38.4269V14.5667H34.7142V9.31653H38.4269V9.99905Z" fill="white"/>
<path d="M41.2696 12.3691H40.4371V14.5667H39.642V9.31653H41.3896C42.5221 9.31653 43.1822 9.92405 43.1822 10.8241C43.1822 11.3266 42.9346 12.0241 42.0496 12.2716L43.4747 14.5667H42.5821L41.2696 12.3691ZM41.3296 9.99155H40.4371V11.6941H41.3296C41.9596 11.6941 42.3871 11.3791 42.3871 10.8241C42.3871 10.2466 41.9596 9.99155 41.3296 9.99155Z" fill="white"/>
<path d="M44.5489 9.31653H45.3439V14.5667H44.5489V9.31653Z" fill="white"/>
<path d="M47.7143 12.3691V14.5667H46.9193V9.31653H50.4969V9.99905H47.7143V11.6941H49.7469V12.3691H47.7143Z" fill="white"/>
<path d="M51.5543 9.31653H52.3493V14.5667H51.5543V9.31653Z" fill="white"/>
<path d="M57.6356 9.99905H54.718V11.5591H56.5556V12.2266H54.718V13.8992H57.6356V14.5667H53.923V9.31653H57.6356V9.99905Z" fill="white"/>
<path d="M60.4634 14.5667H58.8508V9.31653H60.4634C62.1809 9.31653 63.1709 10.3816 63.1709 11.9416C63.1709 13.5017 62.1809 14.5667 60.4634 14.5667ZM60.3508 9.98405H59.6458V13.9067H60.3508C61.5809 13.9067 62.3534 13.2617 62.3534 11.9416C62.3534 10.6291 61.5809 9.98405 60.3508 9.98405Z" fill="white"/>
<path d="M70.5661 14.568H69.5611L68.991 13.938C68.7135 14.3205 68.2485 14.658 67.5735 14.658C66.6435 14.658 66.0134 13.9755 66.0134 13.2029C66.0134 12.5879 66.3509 12.0854 66.9285 11.6354C66.5984 11.2604 66.4634 10.8928 66.4634 10.5253C66.4634 9.6628 67.161 9.22778 67.8585 9.22778C68.5185 9.22778 69.186 9.6178 69.186 10.3978C69.186 10.5928 69.141 10.8253 68.9985 11.0429L68.346 10.9228C68.421 10.7503 68.466 10.6078 68.466 10.4878C68.466 10.1353 68.196 9.88781 67.866 9.88781C67.446 9.88781 67.221 10.1803 67.221 10.5178C67.221 10.7878 67.356 11.0578 67.6785 11.4254C68.136 11.9429 68.8485 12.7004 68.931 12.7904C69.141 12.4229 69.306 12.0104 69.4036 11.7329H70.2511C70.0261 12.3329 69.7186 12.8879 69.4485 13.3304L70.5661 14.538V14.568ZM67.356 12.1679C66.9885 12.5129 66.8085 12.7904 66.8085 13.1579C66.8085 13.6304 67.2135 13.9605 67.611 13.9605C67.941 13.9605 68.2935 13.7504 68.5035 13.4129L67.356 12.1679Z" fill="white"/>
<path d="M76.0771 10.4203C75.7846 10.1428 75.3345 9.91031 74.9595 9.91031C74.532 9.91031 74.112 10.1353 74.112 10.5853C74.112 10.9228 74.337 11.1479 74.802 11.3879L75.237 11.6129C76.0471 12.0329 76.4971 12.4004 76.4971 13.1654C76.4971 13.9079 75.8971 14.658 74.7945 14.658C74.037 14.658 73.497 14.3655 73.077 13.9304L73.5045 13.3754C73.902 13.7879 74.337 13.9755 74.787 13.9755C75.3495 13.9755 75.7096 13.6304 75.7096 13.2029C75.7096 12.7679 75.4246 12.5804 74.7945 12.2504L74.4045 12.0479C73.707 11.6879 73.317 11.2604 73.317 10.6303C73.317 9.7528 74.067 9.22778 74.937 9.22778C75.5221 9.22778 76.0996 9.47529 76.5046 9.84281L76.0771 10.4203Z" fill="white"/>
<path d="M81.4686 9.99905H78.5509V11.5591H80.3885V12.2266H78.5509V13.8992H81.4686V14.5667H77.7559V9.31653H81.4686V9.99905Z" fill="white"/>
<path d="M84.9282 13.968C85.7457 13.968 86.3007 13.5254 86.5408 12.8279H87.3883C87.0658 13.9605 86.1132 14.658 84.9357 14.658C83.3981 14.658 82.2056 13.5254 82.2056 11.9429C82.2056 10.3603 83.3981 9.22778 84.9357 9.22778C86.1132 9.22778 87.0658 9.92531 87.3883 11.0578H86.5408C86.3007 10.3603 85.7457 9.91781 84.9282 9.91781C83.7882 9.91781 83.0231 10.7953 83.0231 11.9429C83.0231 13.0904 83.7882 13.968 84.9282 13.968Z" fill="white"/>
<path d="M88.5425 12.8342V9.31653H89.3375V12.8192C89.3375 13.4267 89.6225 13.9817 90.41 13.9817C91.1976 13.9817 91.4826 13.4267 91.4826 12.8192V9.31653H92.2551V12.8342C92.2551 13.8392 91.6551 14.6567 90.4025 14.6567C89.15 14.6567 88.5425 13.8392 88.5425 12.8342Z" fill="white"/>
<path d="M95.4116 12.3691H94.5791V14.5667H93.7841V9.31653H95.5316C96.6642 9.31653 97.3242 9.92405 97.3242 10.8241C97.3242 11.3266 97.0767 12.0241 96.1916 12.2716L97.6167 14.5667H96.7242L95.4116 12.3691ZM95.4716 9.99155H94.5791V11.6941H95.4716C96.1016 11.6941 96.5292 11.3791 96.5292 10.8241C96.5292 10.2466 96.1016 9.99155 95.4716 9.99155Z" fill="white"/>
<path d="M102.401 9.99905H99.4836V11.5591H101.321V12.2266H99.4836V13.8992H102.401V14.5667H98.6886V9.31653H102.401V9.99905Z" fill="white"/>
<path d="M105.229 14.5667H103.616V9.31653H105.229C106.947 9.31653 107.937 10.3816 107.937 11.9416C107.937 13.5017 106.947 14.5667 105.229 14.5667ZM105.116 9.98405H104.411V13.9067H105.116C106.346 13.9067 107.119 13.2617 107.119 11.9416C107.119 10.6291 106.346 9.98405 105.116 9.98405Z" fill="white"/>
<path d="M36.5568 16.8485H36.8988H37.2409L37.9189 19.2031H37.9173L38.5933 16.8485H38.9243H39.2574L38.2132 19.9307H37.9071H37.601L36.5568 16.8485Z" fill="white"/>
<path d="M40.3129 19.9309V16.8488H42.5815V17.1213V17.396H40.9565V18.0502H42.4641V18.3144V18.5806H40.9565V19.3837H42.6528V19.6562V19.9309L40.3129 19.9309Z" fill="white"/>
<path d="M43.8208 16.8488H44.1416H45.3744C45.668 16.8488 45.9046 16.9274 46.0842 17.0846C46.2638 17.2419 46.3536 17.4491 46.3536 17.7063C46.3536 18.0027 46.2536 18.2193 46.0538 18.3563C46.0006 18.3926 45.9406 18.4234 45.8734 18.4485C45.9112 18.4639 45.9454 18.4807 45.9762 18.4989C46.1523 18.6037 46.2439 18.7798 46.2509 19.0272L46.2655 19.5325C46.2683 19.6332 46.2788 19.7045 46.297 19.7464C46.3151 19.7883 46.3501 19.8219 46.4018 19.847V19.9288H45.6906C45.6738 19.8966 45.6591 19.8278 45.6466 19.7223C45.634 19.6168 45.627 19.5032 45.6256 19.3816L45.6215 19.0964C45.6187 18.958 45.5778 18.8595 45.4989 18.8008C45.42 18.7421 45.289 18.7127 45.1061 18.7127H44.4645V19.9309H44.1437H43.8208V16.8488ZM44.4645 18.1948H45.2109C45.3772 18.1948 45.502 18.161 45.5852 18.0932C45.6683 18.0254 45.7099 17.923 45.7099 17.786C45.7099 17.6504 45.6704 17.5487 45.5914 17.4809C45.5125 17.4132 45.394 17.3792 45.2361 17.3792H44.4645V18.1948Z" fill="white"/>
<path d="M47.5137 16.8488H47.8345H48.1574V19.9309H47.8366H47.5137V16.8488Z" fill="white"/>
<path d="M49.4013 16.8488H49.7221H50.9549C51.2485 16.8488 51.4851 16.9274 51.6647 17.0846C51.8443 17.2419 51.9341 17.4491 51.9341 17.7063C51.9341 18.0027 51.8341 18.2193 51.6343 18.3563C51.5811 18.3926 51.5211 18.4234 51.4539 18.4485C51.4917 18.4639 51.5259 18.4807 51.5567 18.4989C51.7328 18.6037 51.8244 18.7798 51.8314 19.0272L51.846 19.5325C51.8488 19.6332 51.8593 19.7045 51.8775 19.7464C51.8956 19.7883 51.9306 19.8219 51.9823 19.847V19.9288H51.2711C51.2543 19.8966 51.2396 19.8278 51.2271 19.7223C51.2145 19.6168 51.2075 19.5032 51.2061 19.3816L51.202 19.0964C51.1992 18.958 51.1583 18.8595 51.0794 18.8008C51.0005 18.7421 50.8695 18.7127 50.6866 18.7127H50.045V19.9309H49.7242H49.4013V16.8488ZM50.045 18.1948H50.7914C50.9577 18.1948 51.0825 18.161 51.1657 18.0932C51.2488 18.0254 51.2904 17.923 51.2904 17.786C51.2904 17.6504 51.2509 17.5487 51.172 17.4809C51.093 17.4132 50.9745 17.3792 50.8166 17.3792H50.045V18.1948Z" fill="white"/>
<path d="M53.9609 18.7714L52.8853 16.8488H53.2674H53.6516L54.2931 18.1844L54.2921 18.1864L54.894 16.8488H55.2588H55.6235L54.6045 18.7589V19.9309H54.2838H53.9609L53.9609 18.7714Z" fill="white"/>
<path d="M60.1629 17.774C60.1517 17.6272 60.0874 17.5109 59.9701 17.4249C59.8527 17.339 59.6997 17.296 59.5112 17.296C59.3477 17.296 59.2199 17.332 59.1277 17.4039C59.0355 17.4759 58.9894 17.5762 58.9894 17.7048C58.9894 17.7971 59.0376 17.8684 59.134 17.9187C59.2291 17.969 59.431 18.0284 59.7399 18.0969C60.1885 18.1975 60.4883 18.3136 60.6392 18.4449C60.7904 18.5749 60.866 18.7839 60.866 19.0719C60.866 19.3612 60.7521 19.5908 60.5243 19.7606C60.2966 19.9304 59.9884 20.0154 59.5999 20.0154C59.21 20.0154 58.9053 19.9252 58.686 19.7449C58.4666 19.5646 58.3492 19.3081 58.3338 18.9754H58.9544C58.9614 19.139 59.0208 19.2648 59.1326 19.3528C59.2443 19.4409 59.4002 19.4849 59.6 19.4849C59.8054 19.4849 59.9657 19.4517 60.081 19.3853C60.1963 19.3189 60.2539 19.227 60.2539 19.1096C60.2539 18.9936 60.2124 18.9083 60.1292 18.8538C60.0483 18.7993 59.875 18.7427 59.6096 18.684C59.1207 18.5749 58.7939 18.4568 58.629 18.3296C58.4654 18.2038 58.3836 18.0075 58.3836 17.7404C58.3836 17.4413 58.4918 17.2041 58.7085 17.0286C58.925 16.8532 59.2178 16.7655 59.5867 16.7655C59.9318 16.7655 60.2127 16.8564 60.4292 17.0381C60.6458 17.2198 60.766 17.4651 60.7897 17.774H60.1629Z" fill="white"/>
<path d="M62.0009 19.9309V16.8488H64.2695V17.1213V17.396H62.6446V18.0502H64.1522V18.3144V18.5806H62.6446V19.3837H64.3408V19.6562V19.9309L62.0009 19.9309Z" fill="white"/>
<path d="M68.1184 18.8517C68.0793 19.2081 67.9398 19.4912 67.7001 19.7009C67.4604 19.9105 67.1553 20.0154 66.7849 20.0154C66.3516 20.0154 66.0074 19.8707 65.7523 19.5814C65.4972 19.292 65.3696 18.9006 65.3696 18.4072C65.3696 17.904 65.4972 17.5046 65.7523 17.209C66.0074 16.9133 66.3516 16.7655 66.7849 16.7655C67.1511 16.7655 67.4545 16.8644 67.6949 17.0622C67.9352 17.26 68.0765 17.528 68.1184 17.8663H67.4747C67.4537 17.6999 67.382 17.5679 67.2595 17.47C67.137 17.3722 66.9813 17.3232 66.7923 17.3232C66.5529 17.3232 66.3653 17.4186 66.2296 17.6094C66.0938 17.8002 66.0259 18.0647 66.0259 18.403C66.0259 18.7329 66.0935 18.9911 66.2285 19.1777C66.3636 19.3643 66.5515 19.4576 66.7923 19.4576C66.9813 19.4576 67.137 19.4031 67.2595 19.2941C67.382 19.1851 67.4537 19.0376 67.4747 18.8517L68.1184 18.8517Z" fill="white"/>
<path d="M71.7244 18.7693C71.7258 19.2096 71.629 19.5273 71.4341 19.7223C71.239 19.9173 70.9214 20.0148 70.4811 20.0148C70.0589 20.0148 69.7462 19.9131 69.5428 19.7097C69.3394 19.5063 69.237 19.1929 69.2357 18.7693V16.8488H69.5565H69.8793V18.7903C69.8793 19.0112 69.9293 19.1768 70.0293 19.2872C70.1292 19.3976 70.2798 19.4528 70.4811 19.4528C70.6963 19.4528 70.8501 19.4022 70.9424 19.3008C71.0346 19.1995 71.0807 19.0293 71.0807 18.7903V16.8488H71.4015H71.7244V18.7693Z" fill="white"/>
<path d="M72.9998 16.8488H73.3207H74.5535C74.847 16.8488 75.0836 16.9274 75.2632 17.0846C75.4428 17.2419 75.5327 17.4491 75.5327 17.7063C75.5327 18.0027 75.4327 18.2193 75.2328 18.3563C75.1797 18.3926 75.1196 18.4234 75.0525 18.4485C75.0903 18.4639 75.1245 18.4807 75.1552 18.4989C75.3314 18.6037 75.4229 18.7798 75.4299 19.0272L75.4446 19.5325C75.4474 19.6332 75.4578 19.7045 75.4761 19.7464C75.4942 19.7883 75.5291 19.8219 75.5809 19.847V19.9288H74.8696C74.8529 19.8966 74.8382 19.8278 74.8256 19.7223C74.813 19.6168 74.806 19.5032 74.8047 19.3816L74.8006 19.0964C74.7977 18.958 74.7568 18.8595 74.678 18.8008C74.599 18.7421 74.4681 18.7127 74.2851 18.7127H73.6435V19.9309H73.3227H72.9998V16.8488ZM73.6435 18.1948H74.39C74.5563 18.1948 74.681 18.161 74.7642 18.0932C74.8474 18.0254 74.889 17.923 74.889 17.786C74.889 17.6504 74.8494 17.5487 74.7705 17.4809C74.6915 17.4132 74.573 17.3792 74.4151 17.3792H73.6435V18.1948Z" fill="white"/>
<path d="M76.6931 16.8488H77.0139H77.3369V19.9309H77.016H76.6931V16.8488Z" fill="white"/>
<path d="M79.2455 17.396H78.3145V17.1234V16.8488H80.82V17.1213V17.396H79.8891V19.9309H79.5683H79.2455V17.396Z" fill="white"/>
<path d="M82.662 18.7714L81.5865 16.8488H81.9686H82.3528L82.9943 18.1844L82.9933 18.1864L83.5952 16.8488H83.96H84.3248L83.3058 18.7589V19.9309H82.985H82.662V18.7714Z" fill="white"/>
<path d="M87.17 16.8488H87.4908H87.8137V18.004H89.0192V16.8488H89.34H89.6629V19.9309H89.3422H89.0192V18.5345H87.8137V19.9309H87.4929H87.17V16.8488Z" fill="white"/>
<path d="M90.9396 19.9309V16.8488H93.2082V17.1213V17.396H91.5833V18.0502H93.0908V18.3144V18.5806H91.5833V19.3837H93.2795V19.6562V19.9309L90.9396 19.9309Z" fill="white"/>
<path d="M94.4472 16.8488H94.768H96.0009C96.2944 16.8488 96.5309 16.9274 96.7106 17.0846C96.8902 17.2419 96.98 17.4491 96.98 17.7063C96.98 18.0027 96.8801 18.2193 96.6802 18.3563C96.627 18.3926 96.567 18.4234 96.4999 18.4485C96.5376 18.4639 96.5718 18.4807 96.6026 18.4989C96.7787 18.6037 96.8703 18.7798 96.8773 19.0272L96.8919 19.5325C96.8948 19.6332 96.9052 19.7045 96.9234 19.7464C96.9415 19.7883 96.9765 19.8219 97.0282 19.847V19.9288H96.317C96.3002 19.8966 96.2855 19.8278 96.2729 19.7223C96.2604 19.6168 96.2534 19.5032 96.252 19.3816L96.2479 19.0964C96.2451 18.958 96.2042 18.8595 96.1253 18.8008C96.0464 18.7421 95.9154 18.7127 95.7324 18.7127H95.0909V19.9309H94.7701H94.4472V16.8488ZM95.0909 18.1948H95.8373C96.0036 18.1948 96.1284 18.161 96.2116 18.0932C96.2947 18.0254 96.3363 17.923 96.3363 17.786C96.3363 17.6504 96.2968 17.5487 96.2179 17.4809C96.1389 17.4132 96.0204 17.3792 95.8625 17.3792H95.0909V18.1948Z" fill="white"/>
<path d="M98.1929 19.9309V16.8488H100.461V17.1213V17.396H98.8365V18.0502H100.344V18.3144V18.5806H98.8365V19.3837H100.533V19.6562V19.9309L98.1929 19.9309Z" fill="white"/>
<path d="M50.5369 7.48467C49.8947 7.48467 49.3851 7.27762 49.008 6.86356C48.631 6.44949 48.4424 5.88943 48.4424 5.18326C48.4424 4.46315 48.6385 3.89155 49.0305 3.46849C49.4226 3.04542 49.9527 2.83386 50.6208 2.83386C51.1569 2.83386 51.5985 2.9679 51.9455 3.23595C52.2926 3.50402 52.4951 3.86606 52.5531 4.32214H51.632C51.6079 4.13009 51.4998 3.9616 51.3075 3.81655C51.1153 3.67152 50.903 3.59901 50.6708 3.59901C50.2702 3.59901 49.9568 3.73753 49.7305 4.01457C49.5042 4.29164 49.3911 4.67618 49.3911 5.16826C49.3911 5.66838 49.4996 6.04893 49.7167 6.30997C49.9338 6.57102 50.2515 6.70154 50.6697 6.70154H50.6667C51.0228 6.70154 51.301 6.56551 51.5011 6.29345C51.6111 6.13946 51.6922 5.95843 51.7442 5.75036V5.74136H50.7059V4.98225H52.5532V7.36165H51.9381L51.8481 6.79154L51.7941 6.86356C51.484 7.27762 51.0639 7.48467 50.5338 7.48467H50.5369Z" fill="white"/>
<path d="M54.4714 6.86356C54.0893 6.44949 53.8983 5.88943 53.8983 5.18326C53.8983 4.46315 54.0893 3.89155 54.4714 3.46849C54.8535 3.04542 55.3686 2.83386 56.0167 2.83386C56.6688 2.83386 57.1854 3.04542 57.5664 3.46849C57.9475 3.89155 58.138 4.46315 58.138 5.18326C58.138 5.88943 57.9475 6.44949 57.5664 6.86356C57.1854 7.27762 56.6688 7.48467 56.0167 7.48467C55.3686 7.48467 54.8535 7.27762 54.4714 6.86356ZM56.8988 6.29796C57.1108 6.02895 57.2169 5.65537 57.2169 5.17726C57.2169 4.68921 57.1108 4.30711 56.8988 4.03106C56.6868 3.75502 56.3927 3.61699 56.0167 3.61699C55.6426 3.61699 55.3495 3.75502 55.1375 4.03106C54.9255 4.30711 54.8195 4.68921 54.8195 5.17726C54.8195 5.65537 54.925 6.02895 55.136 6.29796C55.347 6.56703 55.6406 6.70154 56.0167 6.70154C56.3927 6.70154 56.6868 6.56703 56.8988 6.29796Z" fill="white"/>
<path d="M59.5532 2.95081H60.0122H61.4404C62.0465 2.95081 62.5071 3.12888 62.8222 3.48491C63.1372 3.84097 63.2947 4.36209 63.2947 5.04816C63.2947 5.80428 63.1313 6.3789 62.8042 6.77196C62.4771 7.16502 61.9975 7.36155 61.3654 7.36155H60.0122H59.5532V2.95081ZM60.4743 6.60241H61.2514C61.6255 6.60241 61.906 6.47593 62.0931 6.22286C62.2801 5.96984 62.3736 5.59025 62.3736 5.08416C62.3736 4.62612 62.2867 4.28257 62.1126 4.05349C61.9386 3.82447 61.6764 3.70994 61.3265 3.70994H60.4743V6.60241Z" fill="white"/>
<path d="M65.8819 2.95081H66.416H66.9501L68.5104 7.36155H68.0219H67.5333L67.235 6.46439H65.5621L65.2734 7.36155H64.799H64.3217L65.8819 2.95081ZM65.8178 5.70528H66.9888L66.4029 3.93196H66.4038L65.8178 5.70528Z" fill="white"/>
<path d="M69.78 2.95081H70.2391H71.6673C72.2735 2.95081 72.734 3.12888 73.0491 3.48491C73.3642 3.84097 73.5217 4.36209 73.5217 5.04816C73.5217 5.80428 73.3581 6.3789 73.0311 6.77196C72.704 7.16502 72.2244 7.36155 71.5923 7.36155H70.2391H69.78V2.95081ZM70.7012 6.60241H71.4783C71.8524 6.60241 72.1329 6.47593 72.32 6.22286C72.507 5.96984 72.6005 5.59025 72.6005 5.08416C72.6005 4.62612 72.5135 4.28257 72.3395 4.05349C72.1655 3.82447 71.9034 3.70994 71.5534 3.70994H70.7012V6.60241Z" fill="white"/>
<path d="M74.8929 2.95081H75.352H76.7802C77.3863 2.95081 77.8468 3.12888 78.1619 3.48491C78.477 3.84097 78.6345 4.36209 78.6345 5.04816C78.6345 5.80428 78.471 6.3789 78.1439 6.77196C77.8168 7.16502 77.3372 7.36155 76.7052 7.36155H75.352H74.8929V2.95081ZM75.814 6.60241H76.5911C76.9652 6.60241 77.2457 6.47593 77.4328 6.22286C77.6198 5.96984 77.7134 5.59025 77.7134 5.08416C77.7134 4.62612 77.6264 4.28257 77.4523 4.05349C77.2783 3.82447 77.0162 3.70994 76.6662 3.70994H75.814V6.60241Z" fill="white"/>
<path d="M81.1716 5.70226L79.6323 2.95081H80.1792H80.729L81.647 4.86211L81.6456 4.86504L82.5069 2.95081H83.029H83.551L82.0927 5.68427V7.36155H81.6336H81.1716L81.1716 5.70226Z" fill="white"/>
<path d="M85.5209 3.99707H85.7623H86.6899C86.9108 3.99707 87.0888 4.05622 87.224 4.17456C87.3591 4.29286 87.4267 4.44882 87.4267 4.6423C87.4267 4.86529 87.3515 5.0283 87.2011 5.13134C87.1611 5.1587 87.1159 5.18185 87.0654 5.20078C87.0938 5.21235 87.1195 5.22498 87.1427 5.23863C87.2752 5.3175 87.3441 5.45001 87.3494 5.63617L87.3604 6.01637C87.3625 6.09211 87.3704 6.14575 87.3841 6.17731C87.3977 6.20883 87.424 6.23409 87.4629 6.25301V6.31454H86.9278C86.9152 6.29037 86.9042 6.23857 86.8947 6.15914C86.8852 6.07974 86.8799 5.99428 86.8789 5.90279L86.8758 5.68824C86.8737 5.58411 86.843 5.50999 86.7836 5.46581C86.7242 5.42162 86.6256 5.39953 86.488 5.39953H86.0052V6.31612H85.7639H85.5209L85.5209 3.99707ZM86.0052 5.00987H86.5669C86.692 5.00987 86.7859 4.98438 86.8485 4.93338C86.9111 4.88237 86.9424 4.80534 86.9424 4.70224C86.9424 4.60026 86.9126 4.52373 86.8532 4.47273C86.7938 4.42172 86.7046 4.3962 86.5858 4.3962H86.0052V5.00987Z" fill="white"/>
<path d="M86.4897 7.54606C85.173 7.54606 84.1021 6.47497 84.1021 5.15845C84.1021 3.84194 85.173 2.771 86.4897 2.771C87.8063 2.771 88.8773 3.84194 88.8773 5.15845C88.8773 6.47497 87.8063 7.54606 86.4897 7.54606ZM86.4897 3.2341C85.4284 3.2341 84.5652 4.09731 84.5652 5.15845C84.5652 6.21959 85.4284 7.08295 86.4897 7.08295C87.551 7.08295 88.4142 6.21959 88.4142 5.15845C88.4142 4.09731 87.551 3.2341 86.4897 3.2341Z" fill="white"/>
</svg>
