<svg width="23" height="23" viewBox="0 0 23 23" fill="none" xmlns="http://www.w3.org/2000/svg">
<path d="M11.4625 18.7351C15.4251 18.7351 18.6375 15.5228 18.6375 11.5601C18.6375 7.59749 15.4251 4.38513 11.4625 4.38513C7.49986 4.38513 4.28751 7.59749 4.28751 11.5601C4.28751 15.5228 7.49986 18.7351 11.4625 18.7351Z" fill="white" fill-opacity="0.5"/>
<path d="M5.75753 11.2236C5.75753 11.2236 5.84402 11.1537 5.77749 11.1537C5.71096 11.1537 5.35504 11.1537 5.31845 11.1537C5.28186 11.1537 5.24194 11.2036 5.212 11.2103C5.18206 11.2169 5.07895 11.2602 5.06232 11.2801C5.04568 11.3001 4.98248 11.3067 4.98248 11.4298C4.98248 11.5529 4.98248 12.0751 4.98248 12.1283C4.98248 12.1816 5.04236 12.1649 5.04236 12.2281C5.04236 12.2913 5.04568 12.5076 5.04901 12.5308C5.05234 12.5541 5.09891 12.5674 5.09558 12.6007C5.09226 12.634 5.0856 12.7238 5.10556 12.757C5.12552 12.7903 5.10556 12.8269 5.16876 12.8302C5.23196 12.8335 5.35836 12.8535 5.35836 12.8535C5.35836 12.8535 5.36356 12.8768 5.39256 12.8967C5.42156 12.9167 5.47146 12.9599 5.50805 12.9566C5.54464 12.9533 5.63113 12.9666 5.66439 12.8934C5.69765 12.8202 5.67437 12.7637 5.70763 12.7371C5.7409 12.7105 5.82073 12.6639 5.82738 12.6273C5.83404 12.5907 5.8806 12.5541 5.88726 12.4776C5.89391 12.4011 5.90056 12.3612 5.92385 12.3446C5.94713 12.3279 5.95711 12.2913 5.95711 12.2448C5.95711 12.1982 5.96376 12.1051 5.98039 12.0751C5.99703 12.0452 6.07686 12.0019 6.09017 11.962C6.10347 11.9221 6.1068 11.8988 6.13008 11.8789C6.15337 11.8589 6.18663 11.8323 6.1833 11.7392C6.17998 11.646 6.13673 11.666 6.13341 11.6327C6.13008 11.5994 6.13008 11.5329 6.12675 11.473C6.12343 11.4132 6.12675 11.3899 6.14671 11.3533C6.16667 11.3167 6.18709 11.3234 6.18353 11.2568C6.17998 11.1903 6.21037 11.1338 6.18353 11.1271C6.15669 11.1204 6.04359 11.1271 6.04359 11.1271C6.04359 11.1271 6.02364 11.2103 6.02031 11.2435C6.01698 11.2768 6.00368 11.34 5.98372 11.3599C5.96376 11.3799 5.95046 11.3699 5.94048 11.4165C5.9305 11.4631 5.90721 11.4764 5.90056 11.4963C5.89391 11.5163 5.88725 11.5419 5.8806 11.579C5.87395 11.6161 5.87395 11.6626 5.85066 11.6826C5.82738 11.7026 5.81407 11.7026 5.79412 11.7225C5.77416 11.7425 5.77748 11.7392 5.75087 11.7525C5.72426 11.7658 5.72759 11.7691 5.70763 11.7757C5.68767 11.7824 5.73757 11.799 5.68767 11.7824C5.63778 11.7658 5.65773 11.809 5.63778 11.7658C5.61782 11.7225 5.58598 11.7192 5.5886 11.6926C5.59121 11.666 5.57268 11.6826 5.5886 11.6394C5.60451 11.5961 5.60784 11.5595 5.61449 11.5329C5.62114 11.5063 5.6278 11.503 5.62114 11.4597C5.61449 11.4165 5.59453 11.4165 5.63445 11.3733C5.67437 11.33 5.75753 11.2236 5.75753 11.2236Z" fill="white" fill-opacity="0.5"/>
<path d="M5.62497 10.7319C5.67154 10.7752 5.65823 10.8151 5.78464 10.8151C5.91104 10.8151 6.07736 10.8151 6.12725 10.8151C6.17715 10.8151 6.23037 10.7785 6.23702 10.7319C6.24368 10.6854 6.21041 10.6754 6.18047 10.6521C6.15054 10.6288 6.06738 10.5955 6.03411 10.5955C6.00085 10.5955 5.68484 10.6055 5.67486 10.5955C5.66488 10.5856 5.61309 10.5556 5.58909 10.5457C5.56509 10.5357 5.50855 10.5323 5.49524 10.5323C5.48193 10.5323 5.46198 10.559 5.46198 10.6022C5.46198 10.6454 5.47861 10.6953 5.50189 10.7086C5.52518 10.722 5.62497 10.7319 5.62497 10.7319Z" fill="white" fill-opacity="0.5"/>
<path d="M9.99232 11.2074C10.0652 11.2008 10.1054 11.1741 10.0888 11.1176C10.0722 11.061 10.009 11.0344 9.99232 10.9679C9.97569 10.9014 10.0424 10.8016 10.0424 10.8016H10.5279C10.5279 10.8016 10.5611 11.0244 10.611 11.0743C10.6609 11.1242 10.8239 11.1708 10.8472 11.1908C10.8705 11.2107 10.9337 11.1908 10.8871 11.1508C10.8405 11.1109 10.7873 10.9978 10.7873 10.9213C10.7873 10.8448 10.7873 10.7018 10.7873 10.6718C10.7873 10.6419 10.8439 10.5521 10.8871 10.5355C10.9304 10.5188 10.9503 10.5088 11.0035 10.4856C11.0568 10.4623 11.0701 10.4756 11.0701 10.429C11.0701 10.3824 11.1299 10.2926 11.1366 10.1962C11.1432 10.0997 11.1432 9.98661 11.1732 9.95002C11.2031 9.91343 11.243 9.9101 11.3029 9.90677C11.3628 9.90345 11.4545 9.90345 11.4669 9.88016C11.4792 9.85688 11.5291 9.8469 11.5757 9.84357C11.6222 9.84025 11.7553 9.85688 11.7852 9.84357C11.8152 9.83027 11.8351 9.78037 11.8917 9.77705C11.9482 9.77372 12.0247 9.81696 12.0347 9.77705C12.0447 9.73713 12.0447 9.69389 12.0181 9.65397C11.9915 9.61405 11.9682 9.55418 11.9549 9.53755C11.9416 9.52092 11.9283 9.47102 11.8917 9.47102C11.8551 9.47102 11.752 9.4178 11.7753 9.37456C11.7985 9.33131 11.8484 9.30138 11.8484 9.30138C11.8484 9.30138 11.9083 9.31801 11.895 9.26479C11.8817 9.21157 11.9017 9.12508 11.8884 9.10845C11.875 9.09182 11.8418 9.08184 11.7985 9.04192C11.7553 9.002 11.722 8.94213 11.7021 8.91219C11.6821 8.88225 11.5723 8.66604 11.5491 8.63278C11.5258 8.59951 11.426 8.53298 11.3761 8.60284C11.3262 8.67269 10.957 9.07851 10.9037 9.12175C10.8505 9.165 10.8139 9.165 10.8073 9.21157C10.8006 9.25813 10.7574 9.31135 10.7042 9.35459C10.6509 9.39784 10.5378 9.50096 10.5445 9.4178C10.5512 9.33464 10.5578 9.28807 10.5445 9.20491C10.5312 9.12175 10.5445 9.10844 10.488 9.04524C10.4314 8.98204 10.4248 8.98537 10.4114 8.93214C10.3981 8.87892 10.4414 8.78246 10.458 8.75917C10.4746 8.73589 10.5977 8.71926 10.6044 8.64608C10.611 8.5729 10.5977 8.53963 10.5811 8.50304C10.5645 8.46645 10.5811 8.4099 10.6144 8.37332C10.6476 8.33673 10.8106 8.32009 10.8938 8.207C10.9769 8.0939 10.9536 7.99078 10.9769 7.94754C11.0002 7.90429 10.9771 7.84442 11.0153 7.79785C11.0534 7.75128 11.0701 7.70139 11.0767 7.68143C11.0834 7.66147 11.12 7.65149 11.1033 7.61157C11.0867 7.57166 11.0568 7.57166 11.0568 7.53174C11.0568 7.49182 11.0601 7.37873 11.0701 7.37873C11.08 7.37873 11.1499 7.31885 11.1566 7.28559C11.1632 7.25233 11.1 7.1991 11.1399 7.15586C11.1798 7.11262 11.2198 7.07603 11.253 7.11594C11.2863 7.15586 11.446 7.28892 11.4526 7.30222C11.4593 7.31552 11.4279 7.57831 11.4669 7.61157C11.5058 7.64484 11.6156 7.67145 11.6123 7.79452C11.6089 7.9176 11.5324 7.96417 11.4992 8.01074C11.4659 8.05731 11.436 8.20034 11.4892 8.22695C11.5424 8.25356 11.6056 8.27685 11.6522 8.32009C11.6988 8.36333 11.7387 8.42321 11.7819 8.44317C11.8252 8.46312 11.885 8.44982 11.905 8.36666C11.9249 8.2835 11.9283 8.2336 11.9449 8.18038C11.9615 8.12716 11.9516 8.10055 11.9948 8.07394C12.038 8.04733 12.1212 8.02071 12.1179 7.94421C12.1146 7.8677 12.078 7.65149 12.0281 7.57165C11.9782 7.49182 11.9615 7.47851 11.9449 7.4386C11.9283 7.39868 11.9216 7.38205 11.9083 7.36542C11.895 7.34879 11.8584 7.34546 11.8318 7.32218C11.8052 7.29889 11.7254 7.29889 11.7121 7.27893C11.6988 7.25897 11.6854 7.25897 11.6555 7.22571C11.6256 7.19245 11.6056 7.15253 11.5857 7.13923C11.5657 7.12592 11.5524 7.12155 11.5557 7.09878C11.559 7.07602 11.589 7.00617 11.6555 6.96958C11.722 6.93299 11.8085 6.91303 11.8584 6.91969C11.9083 6.92634 11.9715 6.95295 11.9948 6.93632C12.0181 6.91969 12.1279 6.8465 12.1511 6.83985C12.1744 6.8332 12.2044 6.79994 12.2343 6.80991C12.2642 6.81989 12.4039 6.80806 12.4172 6.80806C12.4306 6.80806 12.4405 6.88642 12.3873 6.92301C12.3341 6.9596 12.231 7.02613 12.2044 7.09931C12.1777 7.17249 12.1578 7.26563 12.1877 7.3255C12.2177 7.38538 12.3241 7.42529 12.3807 7.43527C12.4372 7.44525 12.5071 7.3754 12.5204 7.41199C12.5337 7.44858 12.5902 7.54504 12.557 7.58163C12.5237 7.61822 12.5204 7.80783 12.5969 7.90762C12.6734 8.00741 12.7965 8.22363 12.8463 8.30678C12.8962 8.38994 13.1923 8.61614 13.2089 8.65938C13.2256 8.70262 13.3586 8.79576 13.3985 8.78578C13.4384 8.77581 13.4451 8.76915 13.4418 8.74587C13.4384 8.72258 13.4185 8.64275 13.3852 8.59618C13.352 8.54961 13.3553 8.49639 13.3619 8.44982C13.3686 8.40325 13.3752 8.36333 13.3786 8.32674C13.3819 8.29015 13.3701 8.25023 13.4425 8.18704C13.5149 8.12384 13.515 8.06063 13.5615 8.02404C13.6081 7.98745 13.5915 7.93091 13.5782 7.88434C13.5648 7.83777 13.5515 7.84109 13.5316 7.81448C13.5116 7.78787 13.505 7.7912 13.495 7.76459C13.485 7.73798 13.4351 7.64484 13.4584 7.59494C13.4817 7.54504 13.4684 7.50513 13.4684 7.50513C13.4684 7.50513 13.5765 7.46854 13.5923 7.45523C13.6081 7.44193 13.6064 7.30554 13.5923 7.2623C13.5782 7.21906 13.5249 7.17582 13.5116 7.13257C13.4983 7.08933 13.5449 7.03611 13.5016 7.03278C13.4584 7.02945 13.4318 7.02613 13.4518 6.99952C13.4717 6.97291 13.5682 6.92634 13.6181 6.86646C13.668 6.80659 13.6946 6.76667 13.6813 6.72343C13.668 6.68019 13.5382 6.5438 13.4983 6.51387C13.4584 6.48393 13.3985 6.42738 13.3752 6.38746C13.352 6.34755 13.352 6.30098 13.2755 6.26439C13.1989 6.2278 13.1657 6.19453 13.1258 6.21449C13.0859 6.23445 13.036 6.29432 12.9994 6.29765C12.9628 6.30098 12.8929 6.31761 12.8896 6.291C12.8863 6.26439 12.8497 6.25773 12.8031 6.26771C12.7565 6.27769 12.7299 6.32093 12.7166 6.36085C12.7033 6.40077 12.5902 6.57374 12.547 6.61033C12.5037 6.64692 12.3507 6.62363 12.3208 6.62696C12.2908 6.63029 12.1644 6.62696 12.1545 6.62363C12.1445 6.62031 11.9915 6.51386 11.9449 6.50056C11.8983 6.48725 11.8052 6.42738 11.6888 6.51386C11.5723 6.60035 11.4825 6.67353 11.4027 6.6702C11.3229 6.66688 11.2763 6.66688 11.2597 6.71012C11.243 6.75336 11.2131 6.78662 11.2031 6.79661C11.1931 6.80658 11.1166 6.8465 11.09 6.84317C11.0634 6.83985 11.0002 6.82322 11.0002 6.82322C11.0002 6.82322 10.9669 6.79661 10.9536 6.79993C10.9403 6.80326 10.9304 6.83652 10.9337 6.84983C10.937 6.86313 10.8239 6.98288 10.8006 7.09598C10.7773 7.20908 10.8272 7.33215 10.8505 7.37207C10.8738 7.41199 10.8738 7.46521 10.8638 7.47186C10.8538 7.47851 10.8472 7.46853 10.8272 7.49847C10.8073 7.52841 10.8206 7.54172 10.7973 7.55835C10.774 7.57498 10.7707 7.57165 10.7441 7.58829C10.7175 7.60492 10.7407 7.59161 10.6909 7.61822C10.641 7.64484 10.7008 7.6282 10.5977 7.66812C10.4946 7.70804 10.5046 7.73797 10.4247 7.73465C10.3449 7.73132 10.2651 7.67477 10.2185 7.64816C10.1719 7.62155 10.1254 7.60492 10.1154 7.60824C10.1054 7.61157 10.0023 7.62155 9.95572 7.63153C9.90916 7.64151 9.81602 7.63153 9.79939 7.61157C9.78275 7.59161 9.75282 7.55835 9.74284 7.52508C9.73286 7.49182 9.69627 7.33548 9.60646 7.31552C9.51664 7.29556 9.44679 7.28891 9.44014 7.25565C9.43348 7.22238 9.42683 7.1492 9.38691 7.10929C9.347 7.06937 9.30375 7.01947 9.30708 6.97623C9.31041 6.93299 9.21727 6.74006 9.12413 6.70014C9.03099 6.66022 8.78817 6.66355 8.72164 6.66355C8.65511 6.66355 8.3258 6.81657 8.21936 6.94962C8.11291 7.08267 8.08298 7.09598 8.04639 7.10928C8.0098 7.12259 7.92331 7.11594 7.93994 7.18246C7.95657 7.24899 7.87009 7.27893 7.96323 7.34878C8.05636 7.41864 8.1994 7.42529 8.20273 7.45855C8.20605 7.49182 8.28256 7.4386 8.28921 7.565C8.29587 7.6914 8.21271 7.6914 8.30585 7.76458C8.39898 7.83776 8.46551 7.85772 8.50875 7.94753C8.552 8.03734 8.6152 8.08724 8.61187 8.14712C8.60855 8.20699 8.67175 8.28682 8.68838 8.32674C8.70501 8.36666 8.73162 8.44316 8.71832 8.51302C8.70501 8.58287 8.63183 8.64607 8.62518 8.74254C8.61852 8.839 8.60855 8.91218 8.63183 8.92549C8.65512 8.93879 8.69836 8.97538 8.76156 9.02528C8.82476 9.07517 8.82476 9.12507 8.78817 9.17164C8.75158 9.21821 8.71499 9.29804 8.69171 9.35459C8.66842 9.41114 8.69171 9.58078 8.69171 9.65396C8.69171 9.72714 8.74493 10.0964 8.80148 10.1695C8.85803 10.2427 8.95782 10.4323 8.9811 10.4789C9.00439 10.5255 9.04763 10.4157 9.05761 10.3492C9.06759 10.2826 9.13744 10.1962 9.17071 10.2261C9.20397 10.256 9.22393 10.3525 9.21728 10.4423C9.21062 10.5321 9.27382 10.8382 9.44347 10.9546C9.61311 11.071 9.75615 11.1408 9.80937 11.1608C9.86259 11.1808 9.9554 11.2107 9.99232 11.2074Z" fill="white" fill-opacity="0.5"/>
<path d="M10.3578 7.41837C10.3578 7.41837 10.3046 7.30528 10.3578 7.26536C10.4111 7.22544 10.4343 7.15227 10.4643 7.09572C10.4942 7.03917 10.5275 6.97264 10.5341 6.93938C10.5408 6.90611 10.5441 6.89613 10.4876 6.91277C10.431 6.9294 10.3907 6.92274 10.346 6.92607C10.3013 6.9294 10.2614 6.94603 10.2248 6.91942C10.1882 6.8928 10.1583 6.91942 10.1483 6.84624C10.1383 6.77306 10.1283 6.72649 10.1183 6.69988C10.1084 6.67326 10.0684 6.67992 10.0984 6.61672C10.1283 6.55352 10.0851 6.51027 10.1483 6.48366C10.2115 6.45705 10.3878 6.42046 10.3512 6.37722C10.3146 6.33397 10.3811 6.36391 10.2281 6.29073C10.0751 6.21755 10.1183 6.22219 10.0651 6.20823C10.0119 6.19426 9.96533 6.2109 9.95535 6.22753C9.94537 6.24416 9.90212 6.27077 9.86553 6.29073C9.82894 6.31069 9.81231 6.33397 9.76907 6.34063C9.72583 6.34728 9.71252 6.32732 9.6726 6.38054C9.63269 6.43376 9.57614 6.50362 9.53622 6.5768C9.4963 6.64998 9.48633 6.70985 9.49631 6.70985C9.50629 6.70985 9.84225 6.70985 9.84225 6.70985C9.84225 6.70985 9.80566 6.83626 9.76907 6.87617C9.73248 6.91609 9.60608 7.00258 9.61938 7.05247C9.63269 7.10237 9.61606 7.12565 9.61606 7.12565H9.85223C9.85223 7.12565 9.86221 7.13895 9.87552 7.1822C9.88882 7.22544 9.88217 7.25538 9.92541 7.31525C9.96865 7.37513 10.0684 7.34852 10.0851 7.35184C10.1017 7.35517 10.1915 7.34187 10.1915 7.34187C10.1915 7.34187 10.2481 7.39176 10.2946 7.41837C10.3412 7.44499 10.3578 7.41837 10.3578 7.41837Z" fill="white" fill-opacity="0.5"/>
<path d="M10.7239 6.78694C10.7239 6.77031 10.7639 6.67717 10.7505 6.61064C10.7372 6.54411 10.6707 6.53081 10.6275 6.52083C10.5842 6.51085 10.5177 6.47758 10.4844 6.47426C10.4512 6.47093 10.4312 6.4676 10.4512 6.50752C10.4711 6.54744 10.5082 6.62394 10.5379 6.65721C10.5676 6.69047 10.5809 6.73371 10.6275 6.75367C10.674 6.77363 10.7239 6.78694 10.7239 6.78694Z" fill="white" fill-opacity="0.5"/>
<path d="M8.25916 6.35431C8.25916 6.35431 8.31903 6.24121 8.37891 6.18466C8.43879 6.12811 8.4654 6.05493 8.51529 6.02167C8.56519 5.98841 8.63171 5.92188 8.63837 5.89859C8.64502 5.87531 8.69159 5.80878 8.63837 5.81876C8.58514 5.82874 8.54523 5.80878 8.48868 5.8487C8.43213 5.88862 8.31903 5.92853 8.25916 5.96845C8.19929 6.00837 8.04627 6.0882 8.01634 6.10816C7.9864 6.12811 7.94648 6.1514 7.98972 6.16803C8.03297 6.18466 8.07621 6.22458 8.1128 6.26782C8.14939 6.31106 8.25916 6.35431 8.25916 6.35431Z" fill="white" fill-opacity="0.5"/>
<path d="M7.16818 6.97289C7.18149 6.9363 7.19147 6.89638 7.18814 6.86977C7.18482 6.84316 7.16486 6.80053 7.13159 6.81685C7.09833 6.83318 7.04511 6.88973 7.03846 6.89971C7.0318 6.90969 7.00519 6.94961 6.98523 6.95959C6.96528 6.96956 6.93866 6.97954 6.93534 7.00283C6.93201 7.02611 6.93534 7.03609 6.91871 7.04607C6.90208 7.05605 6.91871 7.05273 6.87214 7.07601C6.82557 7.0993 6.84553 7.09264 6.81226 7.11593C6.779 7.13921 6.78233 7.13921 6.75239 7.1625C6.72245 7.18578 6.74906 7.17247 6.69251 7.22902C6.63597 7.28557 6.57942 7.31551 6.56944 7.3388C6.55946 7.36208 6.55946 7.33214 6.53618 7.40865C6.51289 7.48516 6.51289 7.48848 6.45967 7.54503C6.40645 7.60158 6.35988 7.67143 6.40977 7.64815C6.45967 7.62486 6.48628 7.57829 6.54615 7.53838C6.60603 7.49846 6.64262 7.47518 6.67256 7.45189C6.70249 7.42861 6.6659 7.48515 6.73576 7.41198C6.80561 7.3388 6.76237 7.38536 6.80561 7.3388C6.84886 7.29223 6.80561 7.32216 6.88545 7.25896C6.96528 7.19576 6.91871 7.23568 6.98191 7.18578C7.04511 7.13589 7.02848 7.13589 7.05509 7.11926C7.0817 7.10262 7.08503 7.12258 7.09833 7.09264C7.11164 7.06271 7.06839 7.11593 7.11164 7.06271C7.15488 7.00948 7.09501 6.97289 7.13159 6.97289C7.16818 6.97289 7.16818 6.97289 7.16818 6.97289Z" fill="white" fill-opacity="0.5"/>
<path d="M13.8611 8.85878C13.8744 8.84215 13.9176 8.79558 13.9376 8.77562C13.9575 8.75566 13.9808 8.76896 13.9675 8.73237C13.9542 8.69578 13.9875 8.62593 14.0041 8.63923C14.0207 8.65254 14.0973 8.66585 14.1272 8.68248C14.1571 8.69911 14.1837 8.73237 14.1538 8.76231C14.1239 8.79225 14.0241 8.87873 13.9908 8.90534C13.9575 8.93196 13.8977 8.93196 13.8844 8.93196C13.8711 8.93196 13.7912 8.94194 13.8045 8.90867C13.8178 8.87541 13.8611 8.85878 13.8611 8.85878Z" fill="white" fill-opacity="0.5"/>
<path d="M14.1668 9.98705C14.187 9.93715 14.2003 9.91387 14.1969 9.87395C14.1936 9.83403 14.1946 9.79079 14.1974 9.76085C14.2003 9.73092 14.177 9.72094 14.1504 9.73091C14.1238 9.74089 14.1005 9.79037 14.0838 9.85711C14.0672 9.92385 14.0672 10.027 14.0572 10.0502C14.0472 10.0735 14.024 10.1035 14.0206 10.1401C14.0173 10.1767 13.9874 10.1999 14.0073 10.2232C14.0273 10.2465 14.0778 10.2565 14.0991 10.2465C14.1204 10.2365 14.1533 10.2631 14.1668 10.2033C14.1803 10.1434 14.1668 9.98705 14.1668 9.98705Z" fill="white" fill-opacity="0.5"/>
<path d="M14.3863 9.67737C14.3763 9.67072 14.3563 9.6308 14.363 9.60419C14.3696 9.57758 14.3929 9.52769 14.4229 9.48445C14.4528 9.4412 14.4894 9.34806 14.536 9.35804C14.5825 9.36802 14.5759 9.36137 14.5792 9.41792C14.5825 9.47446 14.5626 9.71978 14.5792 9.72685C14.5958 9.73392 14.6025 9.74057 14.6324 9.76053C14.6624 9.78049 14.6491 9.83704 14.6956 9.86698C14.7422 9.89692 14.7522 9.95014 14.7522 9.95014C14.7522 9.98673 14.7455 10.0533 14.7256 10.0898C14.7056 10.1264 14.699 10.1564 14.6857 10.1331C14.6723 10.1098 14.6923 10.0932 14.6624 10.0865C14.6324 10.0799 14.6225 10.0732 14.6025 10.0865C14.5825 10.0998 14.5426 10.1165 14.5127 10.1231C14.4827 10.1298 14.4495 10.1597 14.4229 10.1663C14.3963 10.173 14.373 10.153 14.3996 10.1131C14.4262 10.0732 14.4528 9.9967 14.4561 9.95679C14.4595 9.91687 14.4694 9.85034 14.4528 9.83371C14.4362 9.81708 14.3896 9.81708 14.3996 9.78049C14.4096 9.7439 14.4029 9.68735 14.4029 9.68735L14.3863 9.67737Z" fill="white" fill-opacity="0.5"/>
<path d="M14.9481 9.961C14.9448 9.76807 15.0213 9.66495 15.0479 9.62503C15.0745 9.58512 15.0878 9.54187 15.161 9.52191C15.2342 9.50196 15.2541 9.49198 15.2974 9.46204C15.3406 9.4321 15.4071 9.35892 15.4337 9.33564C15.4604 9.31235 15.487 9.2425 15.4936 9.23252C15.5003 9.22254 15.5834 9.18595 15.5868 9.09614C15.5901 9.00633 15.5901 8.93647 15.6233 8.87993C15.6566 8.82338 15.6766 8.71693 15.7265 8.65373C15.7764 8.59053 15.803 8.47743 15.8562 8.42089C15.9094 8.36434 15.9327 8.34105 15.9393 8.3211C15.946 8.30114 15.9194 8.15145 15.9393 8.07827C15.9593 8.00509 15.9793 8.00509 15.9926 7.94522C16.0059 7.88534 15.926 7.72568 15.9127 7.70904C15.8994 7.69241 15.9227 7.69574 15.8529 7.76559C15.783 7.83544 15.7664 7.86205 15.7331 7.92858C15.6999 7.99511 15.6666 8.01839 15.6699 8.05498C15.6732 8.09157 15.61 8.25124 15.6034 8.30114C15.5967 8.35103 15.5868 8.34771 15.5502 8.3976C15.5136 8.4475 15.5402 8.4475 15.5036 8.49739C15.467 8.54729 15.4637 8.56725 15.447 8.5872C15.4304 8.60716 15.457 8.60051 15.4204 8.63876C15.3838 8.67702 15.3539 8.70907 15.3539 8.70907L15.3206 8.7502C15.3206 8.7502 15.3073 8.81172 15.3007 8.83085C15.294 8.84998 15.3273 8.8766 15.2974 8.90654C15.2674 8.93647 15.2807 8.90321 15.2475 8.97639C15.2142 9.04957 15.2541 9.13938 15.2275 9.1793C15.2009 9.21922 15.1809 9.27244 15.1809 9.20591C15.1809 9.13938 15.171 9.13273 15.1543 9.10612C15.1377 9.0795 15.1011 9.07951 15.0911 9.0662C15.0811 9.0529 15.0778 9.04624 15.0512 9.04624C15.0246 9.04624 14.968 9.08949 14.968 9.08949C14.968 9.08949 14.8882 9.19926 14.8716 9.19926C14.8549 9.19926 14.8649 9.15601 14.8716 9.06953C14.8782 8.98304 14.9348 8.86329 14.9381 8.84666C14.9414 8.83003 14.9182 8.7635 14.9514 8.72358C14.9847 8.68367 15.0213 8.65373 15.0379 8.5872C15.0545 8.52068 15.0911 8.49407 15.1144 8.44417C15.1377 8.39428 15.1743 8.41091 15.1577 8.36101C15.141 8.31111 15.1377 8.10488 15.1676 8.06496C15.1976 8.02505 15.1909 7.98846 15.2342 7.95186C15.2774 7.91527 15.2375 7.91195 15.3007 7.90862C15.3639 7.90529 15.4394 7.8687 15.4283 7.81216C15.4171 7.75561 15.3639 7.73232 15.3905 7.68575C15.4171 7.63919 15.457 7.59927 15.4737 7.54605C15.4903 7.49283 15.4637 7.35977 15.5102 7.30322C15.5568 7.24667 15.5535 7.12027 15.5734 7.08701C15.5934 7.05374 15.5435 6.93399 15.5734 6.87412C15.6034 6.81424 15.5502 6.65458 15.61 6.68119C15.6699 6.7078 15.8462 6.90738 15.9161 6.96393C15.9859 7.02048 16.1156 7.17682 16.1822 7.23337C16.2487 7.28991 16.3917 7.3764 16.3518 7.44293C16.3119 7.50946 16.2587 7.52941 16.2221 7.566C16.1855 7.60259 16.1755 7.59927 16.1689 7.65249C16.1622 7.70571 16.1955 7.78554 16.1822 7.82546C16.1689 7.86538 16.1722 7.91195 16.1589 7.9186C16.1456 7.92525 16.129 8.00841 16.1456 8.00841C16.1622 8.00841 16.2021 8.04168 16.2554 7.99178C16.3086 7.94189 16.2986 7.98513 16.3319 7.91527C16.3651 7.84542 16.3585 7.86538 16.3818 7.78887C16.405 7.71237 16.4516 7.59594 16.4716 7.59262C16.4915 7.58929 16.578 7.65249 16.5813 7.70239C16.5847 7.75228 16.5647 7.73898 16.6445 7.80551C16.7244 7.87203 16.7909 8.02505 16.8242 8.07827C16.8574 8.13149 17.0171 8.37099 17.0969 8.47411C17.1768 8.57723 17.2832 8.72665 17.2732 8.78666C17.2633 8.84666 17.2479 8.95311 17.2739 8.97639C17.2998 8.99968 17.3996 9.15934 17.4229 9.21921C17.4462 9.27909 17.5393 9.46537 17.5526 9.50528C17.566 9.5452 17.6125 9.77472 17.6524 9.84457C17.6924 9.91443 17.7123 9.97763 17.7123 10.0142C17.7123 10.0508 17.6857 10.0275 17.7123 10.0774C17.7389 10.1273 17.7223 10.2437 17.7489 10.2837C17.7755 10.3236 17.7589 10.3502 17.7655 10.3901C17.7722 10.43 17.7888 10.4932 17.8154 10.5265C17.842 10.5597 17.852 10.5764 17.8487 10.6329C17.8454 10.6895 17.8321 10.7992 17.8653 10.8392C17.8986 10.8791 17.9052 10.9256 17.9019 10.9755C17.8986 11.0254 17.8853 11.1452 17.8653 11.1119C17.8454 11.0787 17.8221 11.0188 17.7655 10.9755C17.709 10.9323 17.7057 10.9323 17.6624 10.919C17.6192 10.9057 17.4761 10.9323 17.4761 10.9323C17.4761 10.9323 17.4894 11.0835 17.4828 11.1177C17.4761 11.1518 17.4662 11.1756 17.5127 11.2086C17.5593 11.2417 17.566 11.2483 17.5726 11.2982C17.5793 11.3481 17.5793 11.3481 17.5992 11.3747C17.6192 11.4013 17.6857 11.4379 17.7689 11.4379C17.852 11.4379 17.94 11.5044 17.9027 11.6608C17.8653 11.8171 17.9518 12.173 17.8021 12.9048C17.6524 13.6366 17.3497 14.4117 17.1302 14.7909C16.9107 15.1701 16.8375 15.3098 16.7743 15.2998C16.7111 15.2898 16.6512 15.2566 16.6545 15.1535C16.6579 15.0503 16.6579 14.9672 16.6811 14.904C16.7044 14.8408 16.6978 14.7942 16.7244 14.7144C16.751 14.6346 16.7144 14.5248 16.7443 14.4716C16.7743 14.4183 16.8175 14.262 16.8208 14.1622C16.8242 14.0624 16.8109 13.8495 16.8142 13.7896C16.8175 13.7298 16.7909 13.6899 16.8408 13.6499C16.8907 13.61 16.9838 13.5069 17.0038 13.4204C17.0238 13.3339 16.9672 13.3007 16.9439 13.2741C16.9206 13.2475 16.8042 13.2741 16.7676 13.3073C16.731 13.3406 16.6246 13.4437 16.5581 13.4836C16.4915 13.5235 16.4283 13.6533 16.1655 13.5934C15.9028 13.5335 15.8595 13.5668 15.7497 13.5136C15.64 13.4603 15.5901 13.4404 15.5435 13.3971C15.4969 13.3539 15.5402 13.3639 15.4304 13.324C15.3206 13.284 15.2974 13.3073 15.1643 13.2142C15.0313 13.1211 14.7951 12.998 14.7618 12.9714C14.7286 12.9448 14.6221 12.8283 14.6088 12.8117C14.5955 12.7951 14.5988 12.7851 14.5523 12.7385C14.5057 12.6919 14.5024 12.7086 14.4824 12.6554C14.4624 12.6021 14.5456 12.5556 14.4658 12.4258C14.3859 12.2961 14.3693 12.2329 14.3926 12.203C14.4159 12.173 14.4392 12.1564 14.4059 12.1032C14.3726 12.05 14.3394 12.0999 14.376 12.0134C14.4125 11.9269 14.4026 11.857 14.4259 11.8171C14.4491 11.7772 14.4125 11.8138 14.4591 11.7373C14.5057 11.6608 14.4957 11.6774 14.5123 11.6308C14.529 11.5843 14.5077 11.5909 14.5566 11.5177C14.6055 11.4446 14.6288 11.4313 14.6554 11.3947C14.682 11.3581 14.9248 11.2117 15.0579 11.1884C15.1909 11.1651 15.2874 11.1186 15.3073 11.1053C15.3273 11.092 15.3872 11.0787 15.4271 11.0886C15.467 11.0986 15.5768 11.0753 15.7098 11.0853C15.8429 11.0953 15.926 11.1186 16.0026 11.0687C16.0791 11.0188 16.1622 11.052 16.262 10.929C16.3618 10.8059 16.3053 10.7094 16.3685 10.7094C16.4317 10.7094 16.4849 10.7394 16.5813 10.7726C16.6778 10.8059 16.6412 10.8525 16.8109 10.8458C16.9805 10.8392 17.077 10.8591 17.067 10.7926C17.057 10.7261 17.087 10.7161 17.057 10.7028C17.0271 10.6895 16.9872 10.7061 16.9872 10.6496C16.9872 10.593 16.9838 10.4633 17.0005 10.44C17.0171 10.4167 17.047 10.4367 17.0437 10.3668C17.0404 10.297 17.0238 10.2614 17.0537 10.2509C17.0836 10.2404 17.0836 10.2404 17.0836 10.2404C17.0836 10.2404 17.057 10.2271 17.0437 10.1839C17.0304 10.1406 17.047 10.0475 16.9938 10.0608C16.9406 10.0741 16.9173 10.0741 16.8907 10.1007C16.8641 10.1273 16.8807 10.1107 16.8308 10.1473C16.7809 10.1839 16.761 10.1905 16.7111 10.2338C16.6612 10.277 16.7077 10.3435 16.608 10.3635C16.5082 10.3834 16.4483 10.4267 16.4716 10.3635C16.4949 10.3003 16.4782 10.2504 16.5082 10.2238C16.5381 10.1972 16.5647 10.1573 16.6113 10.1107C16.6579 10.0641 16.6712 10.0575 16.6712 10.0142C16.6712 9.97097 16.6445 9.95767 16.6346 9.96099C16.6246 9.96432 16.578 9.93771 16.5913 9.93771C16.6046 9.93771 16.6911 9.93771 16.7044 9.88449C16.7177 9.83127 16.6778 9.86453 16.7177 9.83127C16.7576 9.798 16.7942 9.7348 16.8275 9.70154C16.8608 9.66827 16.8275 9.67493 16.8707 9.64166C16.914 9.6084 16.8741 9.58844 16.9406 9.56183C17.0071 9.53522 17.0637 9.54853 17.0603 9.482C17.057 9.41547 17.0836 9.29239 17.077 9.26246C17.0703 9.23252 17.0238 9.26578 17.0138 9.22587C17.0038 9.18595 16.9439 9.16267 16.9306 9.17264C16.9173 9.18262 16.9339 9.20591 16.8807 9.20258C16.8275 9.19926 16.8142 9.1926 16.7477 9.19926C16.6811 9.20591 16.5647 9.19926 16.5547 9.21921C16.5448 9.23917 16.5148 9.2292 16.5181 9.27909C16.5215 9.32899 16.4649 9.33564 16.5082 9.41215C16.5514 9.48865 16.5614 9.49198 16.5647 9.5951C16.568 9.69821 16.5813 9.76474 16.5714 9.82129C16.5614 9.87784 16.6279 9.90778 16.5248 9.94104C16.4217 9.9743 16.4184 9.97441 16.3818 9.98933C16.3452 10.0042 16.3518 10.0309 16.3319 10.0475C16.3119 10.0641 16.3285 10.0807 16.2753 10.1173C16.2221 10.1539 16.2154 10.1232 16.1955 10.1685C16.1755 10.2138 16.1057 10.2437 16.0724 10.2171C16.0392 10.1905 16.0258 10.1772 16.0026 10.1506C15.9793 10.124 15.9992 10.1506 15.9693 10.0841C15.9394 10.0175 15.956 10.0109 15.9261 10.0076C15.8961 10.0042 15.8728 9.9743 15.8629 10.0242C15.8529 10.0741 15.8096 10.1772 15.8562 10.2205C15.9028 10.2637 15.9327 10.2238 15.9227 10.2903C15.9128 10.3568 15.9427 10.4034 15.8828 10.4001C15.8229 10.3968 15.8296 10.42 15.7764 10.3968C15.7231 10.3735 15.7797 10.4367 15.7231 10.3735C15.6666 10.3103 15.6932 10.2803 15.64 10.2903C15.5868 10.3003 15.5635 10.3302 15.5369 10.3469C15.5103 10.3635 15.5003 10.3635 15.5003 10.42C15.5003 10.4766 15.457 10.5597 15.4338 10.5498C15.4105 10.5398 15.3639 10.4666 15.3473 10.4932C15.3306 10.5198 15.2175 10.6196 15.2076 10.6762C15.1976 10.7327 15.141 10.8092 15.1244 10.8358C15.1078 10.8624 15.151 10.8591 15.0945 10.899C15.0379 10.9389 15.0512 10.9564 14.978 10.9893C14.9049 11.0221 14.8749 10.9897 14.855 10.9893C14.835 10.9888 14.8051 10.9356 14.7818 10.909C14.7585 10.8824 14.7419 10.8525 14.7518 10.8258C14.7618 10.7992 14.7751 10.7893 14.7818 10.746C14.7884 10.7028 14.8017 10.6462 14.8084 10.603C14.815 10.5597 14.815 10.5498 14.8417 10.5065C14.8683 10.4633 14.9647 10.3469 14.9681 10.3103C14.9714 10.2737 14.9847 10.2537 14.9647 10.2371C14.9448 10.2205 14.9481 9.961 14.9481 9.961Z" fill="white" fill-opacity="0.5"/>
<path d="M12.4873 14.168C12.5705 14.168 12.637 14.1148 12.6337 14.0583C12.6304 14.0017 12.6037 13.9917 12.637 13.9352C12.6703 13.8786 12.7069 13.8554 12.7235 13.8354C12.7401 13.8154 12.7568 13.8154 12.7867 13.7589C12.8166 13.7024 12.7734 13.729 12.8233 13.6757C12.8732 13.6225 12.8998 13.556 12.9364 13.5394C12.973 13.5227 13.0561 13.4429 13.0661 13.413C13.0761 13.383 13.106 13.2899 13.0661 13.25C13.0262 13.21 12.9397 13.1735 12.9098 13.1668C12.8798 13.1602 12.8499 13.1568 12.7601 13.0936C12.6703 13.0304 12.6669 13.0304 12.6037 12.9772C12.5405 12.924 12.6004 12.9107 12.5106 12.8907C12.4208 12.8708 12.4042 12.8708 12.3842 12.8508C12.3642 12.8308 12.3343 12.7577 12.311 12.7211C12.2877 12.6845 12.2545 12.6512 12.2046 12.6446C12.1547 12.6379 12.0715 12.6046 12.0416 12.5714C12.0116 12.5381 11.985 12.5049 11.9751 12.4483C11.9651 12.3918 11.9618 12.3918 11.9152 12.3552C11.8686 12.3186 11.832 12.3053 11.7921 12.272C11.7522 12.2387 11.7156 12.2387 11.669 12.2221C11.6225 12.2055 11.5892 12.1922 11.546 12.1722C11.5027 12.1523 11.2865 12.0026 11.2499 11.9627C11.2133 11.9227 11.1867 11.8329 11.1069 11.8562C11.027 11.8795 11.0104 11.946 10.9372 11.936C10.864 11.9261 10.7144 11.8961 10.7277 11.9227C10.741 11.9494 10.8241 11.9926 10.8175 12.0558C10.8108 12.119 10.711 12.2254 10.6844 12.2554C10.6578 12.2853 10.6312 12.3552 10.5846 12.4017C10.5381 12.4483 10.5813 12.4317 10.4981 12.4882C10.415 12.5448 10.4582 12.4949 10.3917 12.5913C10.3252 12.6878 10.2886 12.7011 10.2719 12.7177C10.2553 12.7344 10.2553 12.7643 10.2354 12.8175C10.2154 12.8708 10.2187 12.8907 10.1988 12.9373C10.1788 12.9839 10.1755 13.057 10.1722 13.1103C10.1688 13.1635 10.2287 13.3231 10.2686 13.373C10.3085 13.4229 10.3152 13.4861 10.3584 13.5161C10.4017 13.546 10.4183 13.556 10.4283 13.5593C10.4383 13.5626 10.5447 13.576 10.5647 13.6392C10.5846 13.7024 10.6279 13.7722 10.6312 13.8154C10.6345 13.8587 10.6478 13.8487 10.6778 13.8787C10.7077 13.9086 10.721 13.9219 10.7543 13.9385C10.7875 13.9552 10.7942 13.9352 10.8308 13.9784C10.8674 14.0217 10.8907 14.0516 10.8973 14.1082C10.904 14.1647 10.8774 14.178 10.8574 14.2113C10.8374 14.2446 10.8142 14.5938 10.8241 14.6836C10.8341 14.7734 10.7875 14.8233 10.751 14.8865C10.7144 14.9497 10.6678 14.9497 10.6478 14.983C10.6279 15.0163 10.6345 15.0262 10.6279 15.0628C10.6212 15.0994 10.6744 15.2957 10.6412 15.3622C10.6079 15.4287 10.6146 15.3988 10.5913 15.4753C10.568 15.5518 10.578 15.5718 10.568 15.625C10.558 15.6782 10.5381 15.7181 10.5381 15.7547C10.5381 15.7913 10.5647 15.8079 10.568 15.961C10.5713 16.114 10.5347 16.1838 10.5214 16.2271C10.5081 16.2703 10.4981 16.3335 10.4915 16.3668C10.4848 16.4 10.4383 16.4799 10.5148 16.4566C10.5913 16.4333 10.6212 16.3701 10.6911 16.3402C10.7609 16.3102 10.8008 16.3501 10.8574 16.2936C10.9139 16.2371 10.8873 16.2504 10.9539 16.2138C11.0204 16.1772 10.9871 16.2104 11.027 16.1273C11.067 16.0441 11.0836 16.0474 11.0769 15.9909C11.0703 15.9344 11.047 15.951 11.0636 15.8944C11.0803 15.8379 11.057 15.7913 11.0902 15.7181C11.1235 15.645 11.1401 15.615 11.1534 15.5884C11.1667 15.5618 11.1501 15.5418 11.2466 15.4653C11.343 15.3888 11.3663 15.3988 11.383 15.3289C11.3996 15.2591 11.343 14.9996 11.3996 14.9464C11.4561 14.8932 11.4528 14.8599 11.5127 14.8034C11.5726 14.7468 11.576 14.7169 11.6292 14.7169C11.6823 14.7169 11.7322 14.687 11.7988 14.6737C11.8653 14.6603 11.8952 14.6304 11.9351 14.5938C11.9751 14.5572 11.9751 14.5339 12.0017 14.4974C12.0283 14.4608 11.9983 14.5007 12.0416 14.4375C12.0848 14.3743 12.0582 14.3843 12.0915 14.351C12.1247 14.3177 12.1081 14.3177 12.1746 14.2712C12.2412 14.2246 12.301 14.168 12.3642 14.1747C12.4274 14.1813 12.4873 14.168 12.4873 14.168Z" fill="white" fill-opacity="0.5"/>
<path d="M1.02607 9.73244C0.811355 9.71025 0.614306 9.76065 0.575383 10.0076C0.520799 10.354 0.894061 10.4594 1.36248 10.5332C1.8309 10.607 2.21847 10.6215 2.27305 10.2752C2.32762 9.92881 1.91718 9.83795 1.64748 9.79545L1.5844 10.1957L1.38 10.1635L1.47886 9.53613L2.5321 9.7021L2.50257 9.88948L2.2272 9.84608L2.2263 9.85176C2.39098 9.93299 2.50743 10.1172 2.47253 10.3386C2.38932 10.8666 1.86639 10.8802 1.32132 10.7944C0.81032 10.7138 0.282849 10.5347 0.370974 9.97543C0.462687 9.39345 0.96173 9.45755 1.06722 9.47127L1.02607 9.73244Z" fill="white"/>
<path d="M0.813019 8.30513L0.922117 7.98401L3.04269 8.12166L2.95763 8.37202L2.37708 8.32959L2.16628 8.95006L2.65066 9.27552L2.5656 9.52588L0.813019 8.30513ZM1.98699 8.83452L2.16451 8.31201L1.1415 8.24068L1.13965 8.24612L1.98699 8.83452Z" fill="white"/>
<path d="M1.34122 6.90559L1.55391 6.53722L3.16819 6.99471L3.17106 6.98973L1.9678 5.8204L2.1805 5.45203L3.95764 6.47812L3.83118 6.69716L2.27804 5.8004L2.27516 5.80537L3.60124 7.09539L3.47477 7.31443L1.69457 6.81093L1.69169 6.8159L3.24482 7.71266L3.11836 7.9317L1.34122 6.90559Z" fill="white"/>
<path d="M2.63196 4.88665L2.78985 4.68909L4.39283 5.97025L4.23492 6.16781L2.63196 4.88665Z" fill="white"/>
<path d="M3.22269 4.16588L3.45824 3.93814L5.13657 4.69817L5.1407 4.69417L3.95002 3.46267L4.13186 3.28687L5.55827 4.7622L5.30825 5.00393L3.68035 4.2671L3.67622 4.27109L4.83094 5.46541L4.6491 5.64121L3.22269 4.16588Z" fill="white"/>
<path d="M5.84975 2.74099C5.72016 2.56837 5.54928 2.45804 5.34162 2.5973C5.0504 2.79257 5.2267 3.13804 5.49081 3.53189C5.75491 3.92574 6.0076 4.21999 6.2988 4.0247C6.59001 3.82943 6.3778 3.46652 6.22574 3.23975L5.88917 3.46545L5.77393 3.29359L6.30146 2.93984L6.89529 3.82542L6.73776 3.93105L6.58249 3.69952L6.57772 3.70272C6.63001 3.87874 6.57398 4.08933 6.3878 4.21417C5.94382 4.5119 5.57854 4.13745 5.27121 3.67915C4.98309 3.2495 4.75614 2.74076 5.22637 2.42543C5.7157 2.0973 6.00775 2.50702 6.06935 2.59373L5.84975 2.74099Z" fill="white"/>
<path d="M7.25815 1.38593L7.49648 1.30127L8.10833 3.02372L8.89373 2.74473L8.96877 2.95598L7.94505 3.31963L7.25815 1.38593Z" fill="white"/>
<path d="M9.24151 0.802874L9.57493 0.740845L10.4927 2.65734L10.2328 2.7057L9.98565 2.17871L9.34144 2.29855L9.29471 2.88021L9.03476 2.92856L9.24151 0.802874ZM9.35445 2.08565L9.89695 1.98473L9.45848 1.05776L9.45283 1.05881L9.35445 2.08565Z" fill="white"/>
<path d="M10.669 0.59809L11.2983 0.587282C11.5656 0.582692 11.8264 0.704693 11.8332 1.10413C11.8364 1.29092 11.7276 1.47963 11.5417 1.53743L11.5418 1.54317C11.7957 1.59918 11.9111 1.78979 11.9155 2.04267C11.9226 2.45934 11.6899 2.63294 11.2617 2.64028L10.7042 2.64985L10.669 0.59809ZM10.9371 1.47883L11.2273 1.47384C11.3336 1.47201 11.5746 1.44201 11.5692 1.12591C11.5655 0.913262 11.4571 0.791524 11.2099 0.795763L10.9254 0.800644L10.9371 1.47883ZM10.9536 2.43862L11.2984 2.43269C11.5656 2.42811 11.6545 2.24548 11.6511 2.04721C11.6462 1.76559 11.4633 1.6595 11.2421 1.6633L10.9403 1.66848L10.9536 2.43862Z" fill="white"/>
<path d="M13.6948 1.84119C13.6139 2.35214 13.4343 2.87947 12.8751 2.79085C12.3159 2.70225 12.3081 2.14523 12.3891 1.63428C12.47 1.12333 12.6496 0.596003 13.2088 0.684615C13.768 0.773218 13.7758 1.33024 13.6948 1.84119ZM12.6502 1.67566C12.576 2.14403 12.5611 2.5316 12.9074 2.58648C13.2538 2.64135 13.3595 2.26818 13.4337 1.79981C13.5079 1.33143 13.5227 0.943866 13.1764 0.88899C12.8301 0.834117 12.7244 1.20729 12.6502 1.67566Z" fill="white"/>
<path d="M14.5608 1.01257L15.188 1.2303C15.4921 1.33586 15.6226 1.58198 15.5161 1.88877C15.4426 2.10053 15.292 2.29771 15.0478 2.27377L15.0459 2.27921C15.2076 2.35665 15.2546 2.52811 15.208 2.69749L15.1093 3.03437C15.0457 3.25261 15.0621 3.31917 15.1069 3.37425L14.8191 3.27434C14.7925 3.21949 14.8235 3.06899 14.851 2.97209L14.9393 2.66507C15.0127 2.3924 14.8718 2.32521 14.7496 2.2828L14.4265 2.17064L14.1268 3.034L13.8878 2.95105L14.5608 1.01257ZM14.4944 1.97516L14.7306 2.05717C14.8717 2.10618 15.1297 2.19572 15.2597 1.82106C15.3257 1.63101 15.2396 1.46725 15.0169 1.38996L14.7319 1.291L14.4944 1.97516Z" fill="white"/>
<path d="M16.686 1.88989L16.9832 2.05321L16.4786 4.11742L16.2469 3.99008L16.3897 3.4258L15.8154 3.11021L15.4106 3.53055L15.1789 3.40321L16.686 1.88989ZM15.9604 2.95377L16.444 3.21953L16.6923 2.22458L16.6873 2.22181L15.9604 2.95377Z" fill="white"/>
<path d="M17.0207 4.54192L16.8186 4.38989L17.9174 2.92929L17.5063 2.62005L17.641 2.44092L18.6676 3.21317L18.5328 3.39231L18.1194 3.08132L17.0207 4.54192Z" fill="white"/>
<path d="M19.2588 5.25554C18.8836 5.61163 18.4202 5.92069 18.0304 5.51004C17.6407 5.09938 17.9736 4.65273 18.3488 4.29664C18.724 3.94055 19.1875 3.63149 19.5772 4.04215C19.9669 4.45281 19.6341 4.89945 19.2588 5.25554ZM18.5308 4.48843C18.1869 4.81485 17.9392 5.11328 18.1805 5.36761C18.4219 5.62192 18.7329 5.39018 19.0768 5.06377C19.4208 4.73735 19.6685 4.4389 19.4271 4.18459C19.1858 3.93027 18.8748 4.16201 18.5308 4.48843Z" fill="white"/>
<path d="M20.4498 5.12195L20.8159 5.6758C20.9934 5.94433 20.9477 6.21916 20.6767 6.39824C20.4897 6.52186 20.2503 6.58709 20.0708 6.41977L20.066 6.42295C20.1475 6.58269 20.0807 6.74743 19.9408 6.8537L19.6578 7.06144C19.4747 7.19622 19.4474 7.25909 19.4495 7.33004L19.2815 7.0759C19.2937 7.01616 19.4097 6.91538 19.4904 6.85511L19.747 6.66482C19.9709 6.49271 19.8997 6.35374 19.8284 6.24585L19.6398 5.96053L18.8774 6.4645L18.7379 6.25351L20.4498 5.12195ZM19.8124 5.84642L19.9503 6.05502C20.0327 6.17969 20.1833 6.40746 20.5142 6.18876C20.682 6.07782 20.713 5.8954 20.583 5.6988L20.4166 5.44704L19.8124 5.84642Z" fill="white"/>
<path d="M21.399 6.68359L21.5114 6.91013L19.6734 7.82251L19.5609 7.59597L21.399 6.68359Z" fill="white"/>
<path d="M21.7897 7.50806L22.1487 8.50594L21.9377 8.58182L21.6644 7.8219L21.0586 8.03978L21.3164 8.75643L21.1055 8.8323L20.8477 8.11566L20.1554 8.36467L20.4404 9.15703L20.2295 9.23291L19.8589 8.20256L21.7897 7.50806Z" fill="white"/>
<path d="M21.9605 10.104C22.1723 10.0643 22.3049 9.96054 22.2605 9.72324C22.2214 9.51421 22.0851 9.41106 21.8704 9.45127C21.3026 9.55759 21.8198 10.4461 21.0825 10.5842C20.6164 10.6715 20.4197 10.3545 20.3662 10.0692C20.2779 9.59743 20.4949 9.41352 20.9243 9.33311L20.9708 9.5817C20.7449 9.62403 20.5046 9.68364 20.5728 10.0481C20.6098 10.2458 20.7796 10.3719 20.9943 10.3317C21.565 10.2248 21.0562 9.33473 21.7963 9.19614C21.9828 9.16122 22.3676 9.17103 22.4634 9.68233C22.5353 10.0665 22.376 10.2776 22.007 10.3526L21.9605 10.104Z" fill="white"/>
<path d="M3.2072 14.7201L3.28961 14.9595L1.34722 15.6281L1.2648 15.3887L3.2072 14.7201Z" fill="white"/>
<path d="M3.55989 15.6746L3.71953 15.9611L2.55184 17.3889L2.55465 17.3939L4.05279 16.5594L4.17601 16.7806L2.38125 17.7803L2.21182 17.4762L3.34406 16.0912L3.34126 16.0862L1.88836 16.8955L1.76514 16.6743L3.55989 15.6746Z" fill="white"/>
<path d="M3.48336 19.1979L3.31592 19.0079L4.68857 17.7978L4.34798 17.4115L4.51633 17.2631L5.36685 18.2278L5.19851 18.3762L4.85602 17.9877L3.48336 19.1979Z" fill="white"/>
<path d="M5.81809 18.6265L6.66416 19.2678L6.5286 19.4466L5.8843 18.9583L5.49499 19.4718L6.10259 19.9324L5.96703 20.1113L5.35942 19.6507L4.91449 20.2377L5.5863 20.7469L5.45073 20.9257L4.57715 20.2636L5.81809 18.6265Z" fill="white"/>
<path d="M7.23976 19.6187L7.84131 19.9012C8.13297 20.0383 8.23712 20.297 8.09888 20.5912C8.00346 20.7944 7.83284 20.9749 7.59223 20.9254L7.58979 20.9306C7.74268 21.0247 7.77143 21.2003 7.70723 21.3641L7.5736 21.6891C7.48737 21.8997 7.49676 21.9677 7.53554 22.0273L7.25951 21.8976C7.23879 21.8402 7.2854 21.6936 7.32301 21.6L7.44318 21.3036C7.54483 21.0399 7.41156 20.9582 7.29437 20.9031L6.98448 20.7575L6.59546 21.5857L6.3663 21.478L7.23976 19.6187ZM7.07256 20.57L7.29912 20.6765C7.43454 20.7401 7.68192 20.8563 7.85075 20.4969C7.93638 20.3147 7.86781 20.1426 7.65427 20.0423L7.38084 19.9138L7.07256 20.57Z" fill="white"/>
<path d="M8.97473 20.3501L9.29524 20.4198L9.59466 22.2396L9.60028 22.2408L9.96438 20.5651L10.2118 20.6189L9.77561 22.6263L9.43542 22.5524L9.14468 20.7874L9.13906 20.7862L8.78596 22.4113L8.53854 22.3575L8.97473 20.3501Z" fill="white"/>
<path d="M11.3337 20.6846L11.6732 20.6791L12.2587 22.7241L11.9941 22.7284L11.8383 22.1669L11.1824 22.1775L11.039 22.7438L10.7744 22.7481L11.3337 20.6846ZM11.2308 21.9696L11.7831 21.9606L11.5053 20.9724L11.4995 20.9725L11.2308 21.9696Z" fill="white"/>
<path d="M13.6454 22.5112L13.397 22.5601L13.0439 20.7646L12.5385 20.864L12.4952 20.6438L13.7572 20.3956L13.8005 20.6158L13.2923 20.7158L13.6454 22.5112Z" fill="white"/>
<path d="M14.3527 20.1834L14.5899 20.0948L15.3081 22.0196L15.0709 22.1082L14.3527 20.1834Z" fill="white"/>
<path d="M16.9348 20.0314C17.1984 20.4773 17.3962 20.9987 16.9082 21.2871C16.4202 21.5755 16.0589 21.1507 15.7954 20.7048C15.5319 20.2589 15.334 19.7375 15.822 19.4491C16.31 19.1607 16.6713 19.5855 16.9348 20.0314ZM16.0233 20.5701C16.2648 20.9789 16.5006 21.2874 16.8028 21.1088C17.105 20.9302 16.9485 20.5748 16.7069 20.1661C16.4654 19.7574 16.2296 19.4489 15.9274 19.6274C15.6252 19.806 15.7817 20.1614 16.0233 20.5701Z" fill="white"/>
<path d="M16.9635 18.7246L17.2008 18.4982L18.8759 19.2702L18.8801 19.2663L17.6963 18.0255L17.8795 17.8507L19.2977 19.3371L19.0458 19.5774L17.421 18.829L17.4168 18.833L18.5649 20.0363L18.3817 20.211L16.9635 18.7246Z" fill="white"/>
<path d="M18.567 16.9522L18.7558 16.67L20.7705 17.3531L20.6233 17.5731L20.073 17.3815L19.7082 17.9268L20.0922 18.3671L19.945 18.5871L18.567 16.9522ZM19.5648 17.7686L19.872 17.3094L18.9013 16.9751L18.8981 16.9799L19.5648 17.7686Z" fill="white"/>
<path d="M19.2977 15.7099L19.3929 15.4753L21.0886 16.1631L21.4022 15.3899L21.6102 15.4742L21.2014 16.4821L19.2977 15.7099Z" fill="white"/>
</svg>
