<svg width="47" height="23" viewBox="0 0 47 23" fill="none" xmlns="http://www.w3.org/2000/svg">
<path d="M46.1028 0.335327V7.01238L43.7256 8.12173L40.0014 3.84281L46.1028 0.335327Z" fill="white"/>
<path d="M46.1028 11.9254V18.1061L38.2581 22.4643L31.6812 14.6988L24.9459 18.1853L21.3009 14.2234V8.12195L24.7874 12.2424L31.8397 8.59738L38.0996 16.1251L46.1028 11.9254Z" fill="white"/>
<path d="M16.9358 16.4706L10.49 9.07364L3.62271 12.5602L0 8.45451L0.165965 8.30811L3.67523 12.2853L10.5436 8.79833L16.9879 16.1935L24.736 12.1449L24.8384 12.3411L16.9358 16.4706Z" fill="white"/>
<path d="M16.9358 17.3309L10.49 9.93387L3.62271 13.4203L0 9.31463L0.165965 9.16833L3.67523 13.1455L10.5436 9.65856L16.9879 17.0538L24.736 13.0052L24.8384 13.2014L16.9358 17.3309Z" fill="white"/>
<path d="M16.9358 18.192L10.49 10.7951L3.62271 14.2816L0 10.1759L0.165965 10.0295L3.67523 14.0068L10.5436 10.5198L16.9879 17.9149L24.736 13.8663L24.8384 14.0625L16.9358 18.192Z" fill="white"/>
<path d="M16.9358 19.0533L10.49 11.6566L3.62271 15.143L0 11.0374L0.165965 10.8909L3.67523 14.8681L10.5436 11.3812L16.9879 18.7763L24.736 14.7278L24.8384 14.9241L16.9358 19.0533Z" fill="white"/>
<path d="M16.9358 19.9149L10.49 12.518L3.62271 16.0045L0 11.8988L0.165965 11.7523L3.67523 15.7297L10.5436 12.2427L16.9879 19.6378L24.736 15.5892L24.8384 15.7854L16.9358 19.9149Z" fill="white"/>
<path d="M16.9358 20.7748L10.49 13.3779L3.62271 16.8644L0 12.7589L0.165965 12.6124L3.67523 16.5895L10.5436 13.1025L16.9879 20.4977L24.736 16.4493L24.8384 16.6455L16.9358 20.7748Z" fill="white"/>
<path d="M16.9358 21.6364L10.49 14.2395L3.62271 17.7259L0 13.6204L0.165965 13.4739L3.67523 17.451L10.5436 13.9642L16.9879 21.3594L24.736 17.3107L24.8384 17.507L16.9358 21.6364Z" fill="white"/>
<path d="M16.9358 22.4965L10.49 15.0996L3.62271 18.5862L0 14.4805L0.165965 14.334L3.67523 18.3113L10.5436 14.8243L16.9879 22.2195L24.736 18.1711L24.8384 18.3673L16.9358 22.4965Z" fill="white"/>
<path d="M24.7354 0.4649L18.0046 4.09546L18.1097 4.29017L24.8404 0.659607L24.7354 0.4649Z" fill="white"/>
<path d="M24.7351 1.25964L18.4584 4.64526L18.5635 4.83997L24.8401 1.45435L24.7351 1.25964Z" fill="white"/>
<path d="M24.7349 2.01443L18.8906 5.16687L18.9956 5.36158L24.84 2.20914L24.7349 2.01443Z" fill="white"/>
<path d="M24.7351 2.80723L19.3437 5.71533L19.4487 5.91004L24.8401 3.00194L24.7351 2.80723Z" fill="white"/>
<path d="M24.7351 3.67476L19.8405 6.31494L19.9455 6.50965L24.8402 3.86946L24.7351 3.67476Z" fill="white"/>
<path d="M24.7326 4.41563L20.2969 6.87109L20.4041 7.06472L24.8397 4.60926L24.7326 4.41563Z" fill="white"/>
<path d="M24.7355 5.35752L20.8024 7.479L20.9075 7.67371L24.8405 5.55223L24.7355 5.35752Z" fill="white"/>
<path d="M24.7335 6.10438L21.2471 8.02441L21.3539 8.21826L24.8402 6.29822L24.7335 6.10438Z" fill="white"/>
</svg>
