<svg width="70" height="23" viewBox="0 0 70 23" fill="none" xmlns="http://www.w3.org/2000/svg">
<path d="M9.34734 4.61233C7.11113 4.61233 4.74076 5.66335 3.86864 7.07215C3.77919 7.22869 3.64502 7.29578 3.46612 7.29578C3.10833 7.29578 2.90707 7.09452 2.90707 6.82617V0.587158H0V22.256H2.90707V20.5341C2.90707 20.2658 3.10833 20.0421 3.37667 20.0421C3.64502 20.0421 3.77919 20.1316 3.86864 20.2658C4.74076 21.6746 7.11113 22.748 9.34734 22.748C13.6856 22.748 18.2922 19.5502 18.2922 13.6466C18.3145 7.78774 13.7079 4.61233 9.34734 4.61233ZM15.1615 13.669C15.1615 17.2916 12.5004 20.0421 9.03427 20.0421C5.54579 20.0421 2.90707 17.2916 2.90707 13.669C2.90707 10.0463 5.52343 7.31814 9.03427 7.31814C12.5004 7.31814 15.1615 10.0463 15.1615 13.669ZM43.7849 11.388V22.2784H40.8778V11.4328C40.8778 8.88349 39.1336 7.54177 37.4117 7.54177C35.0413 7.54177 33.6773 9.15184 33.6773 11.9471V22.2784H30.7702V11.9471C30.7702 9.12947 29.4061 7.54177 27.0357 7.54177C25.2915 7.54177 23.5472 8.88349 23.5472 11.4328V22.2784H20.6402V11.388C20.6402 6.73673 23.8156 4.61233 26.7897 4.61233C29.1825 4.61233 31.0833 5.73044 31.7541 7.49704C31.8212 7.6983 32.0225 7.81011 32.2237 7.81011H32.2908C32.4921 7.81011 32.671 7.6983 32.7604 7.49704C33.4089 5.70808 35.2873 4.61234 37.7248 4.61234C40.6095 4.61233 43.7849 6.73672 43.7849 11.388ZM69.6131 11.388V22.2784H66.706V11.4328C66.706 8.88349 64.9618 7.54177 63.2399 7.54177C60.8695 7.54177 59.5054 9.15184 59.5054 11.9471V22.2784H56.5984V11.9471C56.5984 9.12947 55.2343 7.54177 52.8639 7.54177C51.142 7.54177 49.3978 8.88349 49.3978 11.4328V22.2784H46.446V11.388C46.446 6.73673 49.6214 4.61233 52.5956 4.61233C54.9883 4.61233 56.8891 5.73044 57.5599 7.49704C57.627 7.6983 57.8283 7.81011 58.0072 7.81011H58.0966C58.2979 7.81011 58.4768 7.6983 58.5662 7.49704C59.2147 5.70808 61.1379 4.61234 63.5306 4.61234C66.4377 4.61233 69.6131 6.73672 69.6131 11.388Z" fill="white"/>
</svg>
