<svg width="112" height="24" viewBox="0 0 112 24" fill="none" xmlns="http://www.w3.org/2000/svg">
<path d="M11.5913 0.587158C10.966 0.587158 10.3529 0.639944 9.75499 0.7374C9.75499 0.763793 9.75802 0.787151 9.75802 0.815588V10.9034C9.75802 11.7124 9.44945 12.1123 8.80692 12.1123C8.17856 12.1123 7.8568 11.7124 7.8568 10.9034V8.80422C6.86914 9.99593 6.49862 11.5957 6.9148 13.1457C7.60709 15.7311 10.2727 17.271 12.8571 16.5807C15.4415 15.8874 16.9823 13.2229 16.2921 10.6385C15.7703 8.6875 14.1371 7.28465 12.1323 7.06539C11.6369 7.01056 11.2786 6.56497 11.3344 6.06859C11.3883 5.57326 11.8339 5.21695 12.3303 5.27073C15.0791 5.57326 17.3193 7.49678 18.035 10.1705C18.983 13.7182 16.8686 17.3755 13.324 18.3236C9.77732 19.2717 6.12103 17.1583 5.17193 13.6116C4.45629 10.946 5.43178 8.16472 7.65377 6.52842C7.71774 6.48171 7.78676 6.4472 7.8568 6.41981V1.3546C7.8568 1.30689 7.86086 1.26427 7.86389 1.2196C3.44326 2.76049 0.269104 6.9639 0.269104 11.9104C0.269104 18.1632 5.33841 23.2325 11.5913 23.2325C17.8462 23.2325 22.9134 18.1632 22.9134 11.9104C22.9134 5.65646 17.8462 0.587158 11.5913 0.587158Z" fill="white"/>
<path d="M63.8765 14.3218C62.8208 14.6264 62.3062 15.0233 62.3062 15.9865C62.3062 16.9204 62.9396 17.4828 64.0389 17.4828C64.0318 17.4828 66.8507 17.4635 66.8507 17.4635V13.4803C65.5859 14.064 64.5322 14.1351 63.8765 14.3218ZM70.034 17.296C70.034 17.296 70.0228 16.8555 70.0228 17.9152C70.0228 18.9759 69.4432 20.0357 67.9479 20.0357H62.8899C60.5258 20.0357 59.1199 18.6298 59.1199 16.1723C59.1199 13.7848 60.2445 12.7515 62.7985 12.2145C64.3444 11.8867 65.5625 11.8867 66.2873 11.6532C66.6172 11.5334 66.804 11.2299 66.804 10.7153C66.804 9.68396 66.1929 9.31043 64.7647 9.31043C63.9689 9.31043 63.3354 9.54388 62.8685 9.94175C62.3295 10.4331 61.9336 11.1822 61.0181 11.1822C60.2689 11.1822 59.6832 10.5995 59.6832 9.82503C59.6832 8.32478 61.6291 6.70874 64.648 6.70874C68.1611 6.70874 70.034 7.97455 70.034 10.223V17.296Z" fill="white"/>
<path d="M33.1966 5.42119C33.1966 6.36217 32.3743 7.18444 31.4364 7.18444C30.4711 7.18444 29.6743 6.40789 29.6743 5.42119C29.6743 4.43561 30.4477 3.65906 31.4364 3.65906C32.3977 3.65906 33.1966 4.45692 33.1966 5.42119Z" fill="white"/>
<path d="M35.5131 13.5308C35.5131 11.5301 37.1402 9.90192 39.143 9.90192C41.1437 9.90192 42.7688 11.5301 42.7688 13.5308C42.7688 15.5335 41.1437 17.1617 39.143 17.1617C37.1402 17.1617 35.5131 15.5335 35.5131 13.5308ZM32.5125 13.5308C32.5125 17.1871 35.4867 20.1602 39.143 20.1602C42.7972 20.1602 45.7684 17.1871 45.7684 13.5308C45.7684 9.87553 42.7972 6.90137 39.143 6.90137C35.4867 6.90137 32.5125 9.87553 32.5125 13.5308Z" fill="white"/>
<path d="M88.327 13.5308C88.327 11.5301 89.9562 9.90192 91.9579 9.90192C93.9566 9.90192 95.5838 11.5301 95.5838 13.5308C95.5838 15.5335 93.9566 17.1617 91.9579 17.1617C89.9562 17.1617 88.327 15.5335 88.327 13.5308ZM85.3264 13.5308C85.3264 17.1871 88.3016 20.1602 91.9579 20.1602C95.6091 20.1602 98.5833 17.1871 98.5833 13.5308C98.5833 9.87553 95.6091 6.90137 91.9579 6.90137C88.3016 6.90137 85.3264 9.87553 85.3264 13.5308Z" fill="white"/>
<path d="M55.1673 7.20642L52.1221 16.2609L49.2149 7.20642L45.5322 7.21355L49.5134 18.418C49.961 19.6878 51.0045 20.1548 52.2124 20.1548C53.4619 20.1182 54.2385 19.8746 54.7664 18.418L58.8581 7.21355L55.1673 7.20642Z" fill="white"/>
<path d="M107.52 7.02288C105.945 6.89098 104.247 7.20664 103.706 7.98622V7.22188H100.466V18.3004C100.466 19.5459 101.036 20.16 102.141 20.16C103.245 20.16 103.808 19.5459 103.808 18.3004V12.5449C103.808 10.9005 104.818 9.91384 106.369 9.91384C107.804 9.91384 108.298 10.7117 108.298 12.4038V18.3004C108.298 19.5459 108.86 20.16 109.964 20.16C111.069 20.16 111.636 19.5459 111.636 18.3004V11.4385C111.636 8.57294 109.702 7.20459 107.52 7.02288Z" fill="white"/>
<path d="M28.5776 6.35315H27.66V18.3006C27.66 19.5471 28.2274 20.1592 29.3308 20.1592C30.4352 20.1592 30.9996 19.5471 30.9996 18.3006V8.40263C29.8454 8.27469 28.8892 7.45657 28.5776 6.35315Z" fill="white"/>
<path d="M85.6755 5.42119C85.6755 6.36217 84.8532 7.18444 83.9153 7.18444C82.951 7.18444 82.1522 6.40789 82.1522 5.42119C82.1522 4.43561 82.9267 3.65906 83.9153 3.65906C84.8776 3.65906 85.6755 4.45692 85.6755 5.42119Z" fill="white"/>
<path d="M81.0561 6.35315H80.1365L80.1405 18.3006C80.1405 19.5471 80.7069 20.1592 81.8093 20.1592C82.9147 20.1592 83.4791 19.5471 83.4791 18.3006V8.40263C82.326 8.27469 81.3698 7.45657 81.0561 6.35315Z" fill="white"/>
<path d="M77.1054 17.4778C76.8709 17.4778 76.6831 17.5032 76.542 17.5032C75.9542 17.5032 75.8132 17.292 75.8132 16.7277V9.82009H76.6587C77.552 9.82009 77.9986 9.41911 77.9986 8.64461C77.9986 7.84371 77.552 7.47019 76.6587 7.47019H75.8101V5.11316H72.4797L72.4756 16.5632C72.4756 19.1496 73.11 20.1586 75.9786 20.1586C77.552 20.1586 78.2808 19.713 78.2808 18.6319C78.2808 17.9255 77.8575 17.4778 77.1054 17.4778Z" fill="white"/>
</svg>
