<svg width="88" height="24" viewBox="0 0 88 24" fill="none" xmlns="http://www.w3.org/2000/svg">
<path d="M24.0363 7.12415H28.4401V8.61916H26.9884V15.0921H25.4501V8.61916H24.0363V7.12415Z" fill="white"/>
<path d="M29.0456 6.92371H30.5135V9.79453C30.8024 9.54537 31.0931 9.35848 31.3856 9.23391C31.6781 9.10931 31.9741 9.04704 32.2739 9.04704C32.8589 9.04704 33.3519 9.24931 33.7527 9.65369C34.0957 10.004 34.2673 10.5186 34.2673 11.1974V15.092H32.8102V12.5083C32.8102 11.8258 32.7777 11.3636 32.7127 11.1216C32.6477 10.8797 32.5366 10.6991 32.3796 10.5799C32.2225 10.4608 32.0283 10.4012 31.7973 10.4012C31.4975 10.4012 31.2402 10.5006 31.0254 10.6991C30.8105 10.8978 30.6615 11.1686 30.5785 11.5116C30.5352 11.6886 30.5135 12.093 30.5135 12.725V15.092H29.0456L29.0456 6.92371Z" fill="white"/>
<path d="M35.0734 9.19866H36.3409V9.94073C36.4781 9.64822 36.6605 9.42615 36.888 9.27449C37.1155 9.12283 37.3647 9.047 37.6355 9.047C37.8269 9.047 38.0273 9.0976 38.2368 9.19866L37.7763 10.4716C37.603 10.3849 37.4603 10.3416 37.3484 10.3416C37.1209 10.3416 36.9286 10.4824 36.7715 10.7641C36.6145 11.0457 36.5359 11.5982 36.5359 12.4216L36.5413 12.7087V15.092H35.0734V9.19866Z" fill="white"/>
<path d="M44.5948 12.5733H39.8444C39.9129 12.9922 40.0963 13.3253 40.3942 13.5726C40.6921 13.82 41.0721 13.9437 41.5344 13.9437C42.0869 13.9437 42.5617 13.7505 42.959 13.3641L44.2048 13.9491C43.8942 14.3897 43.5223 14.7155 43.089 14.9268C42.6556 15.138 42.141 15.2436 41.5452 15.2436C40.6208 15.2436 39.8678 14.9521 39.2865 14.3689C38.705 13.7858 38.4144 13.0553 38.4144 12.1778C38.4144 11.2787 38.7042 10.5321 39.2838 9.93802C39.8633 9.34405 40.59 9.047 41.464 9.047C42.392 9.047 43.1467 9.34405 43.7281 9.93802C44.3095 10.5321 44.6002 11.3166 44.6002 12.2916L44.5948 12.5733ZM43.1161 11.4086C43.0184 11.0801 42.8258 10.8128 42.5382 10.607C42.2506 10.4011 41.9169 10.2982 41.5371 10.2982C41.1247 10.2982 40.763 10.4139 40.452 10.6449C40.2566 10.7894 40.0758 11.0439 39.9094 11.4087L43.1161 11.4086Z" fill="white"/>
<path d="M49.8639 9.19866H51.3426V15.092H49.8639V14.4691C49.5753 14.7436 49.2858 14.9412 48.9955 15.0622C48.7051 15.1832 48.3905 15.2436 48.0514 15.2436C47.2904 15.2436 46.6321 14.9485 46.0766 14.358C45.5212 13.7676 45.2435 13.0337 45.2435 12.1561C45.2435 11.2462 45.5122 10.5005 46.0496 9.91906C46.5871 9.33771 47.2399 9.047 48.0082 9.047C48.3616 9.047 48.6934 9.11385 49.0036 9.2474C49.3137 9.38105 49.6005 9.58145 49.8639 9.84865L49.8639 9.19866ZM48.3094 10.412C47.8523 10.412 47.4726 10.5736 47.1703 10.8968C46.868 11.22 46.7168 11.6344 46.7168 12.1399C46.7168 12.6491 46.8706 13.068 47.1783 13.3966C47.4861 13.7252 47.8648 13.8895 48.3147 13.8895C48.779 13.8895 49.1641 13.7279 49.47 13.4047C49.7758 13.0816 49.9289 12.6582 49.9289 12.1345C49.9289 11.6218 49.7758 11.2065 49.47 10.8886C49.1641 10.5709 48.7772 10.412 48.3094 10.412Z" fill="white"/>
<path d="M52.7392 7.02637H54.218V9.19847H55.0955V10.4714H54.218V15.0918H52.7392V10.4714H51.9809V9.19847H52.7392V7.02637Z" fill="white"/>
<path d="M57.3763 7.12415H58.854L60.7011 12.6817L62.5649 7.12415H64.0417L65.3784 15.0921H63.9117L63.0573 10.06L61.3646 15.0921H60.028L58.3502 10.06L57.4755 15.0921H55.9967L57.3763 7.12415Z" fill="white"/>
<path d="M71.7734 12.5733H67.0229C67.0915 12.9922 67.2748 13.3253 67.5727 13.5726C67.8707 13.82 68.2507 13.9437 68.713 13.9437C69.2654 13.9437 69.7403 13.7505 70.1376 13.3641L71.3834 13.9491C71.0728 14.3897 70.7009 14.7155 70.2675 14.9268C69.8342 15.138 69.3196 15.2436 68.7238 15.2436C67.7993 15.2436 67.0464 14.9521 66.4651 14.3689C65.8836 13.7858 65.593 13.0553 65.593 12.1778C65.593 11.2787 65.8828 10.5321 66.4623 9.93802C67.0419 9.34405 67.7686 9.047 68.6425 9.047C69.5706 9.047 70.3252 9.34405 70.9067 9.93802C71.488 10.5321 71.7788 11.3166 71.7788 12.2916L71.7734 12.5733ZM70.2946 11.4086C70.197 11.0801 70.0043 10.8128 69.7168 10.607C69.4291 10.4011 69.0955 10.2982 68.7157 10.2982C68.3033 10.2982 67.9416 10.4139 67.6306 10.6449C67.4352 10.7894 67.2544 11.0439 67.088 11.4087L70.2946 11.4086Z" fill="white"/>
<path d="M72.8719 7.02637H74.3507V9.19847H75.2281V10.4714H74.3507V15.0918H72.8719V10.4714H72.1135V9.19847H72.8719V7.02637Z" fill="white"/>
<path d="M75.6722 9.19866H76.9397V9.94073C77.0769 9.64822 77.2593 9.42615 77.4868 9.27449C77.7143 9.12283 77.9635 9.047 78.2343 9.047C78.4257 9.047 78.6261 9.0976 78.8356 9.19866L78.3751 10.4716C78.2018 10.3849 78.0591 10.3416 77.9472 10.3416C77.7197 10.3416 77.5274 10.4824 77.3704 10.7641C77.2133 11.0457 77.1347 11.5982 77.1347 12.4216L77.1402 12.7087V15.092H75.6722V9.19866Z" fill="white"/>
<path d="M80.1438 6.77197C80.403 6.77197 80.6253 6.86592 80.8107 7.05363C80.9962 7.24144 81.0889 7.46894 81.0889 7.73614C81.0889 7.99976 80.9971 8.22457 80.8134 8.41051C80.6298 8.59653 80.4102 8.68946 80.1546 8.68946C79.8917 8.68946 79.6675 8.59467 79.482 8.40509C79.2966 8.21551 79.2039 7.9853 79.2039 7.71447C79.2039 7.45446 79.2957 7.23239 79.4793 7.0482C79.663 6.86405 79.8844 6.77197 80.1438 6.77197ZM79.4044 9.19863H80.8831V15.092H79.4044V9.19863Z" fill="white"/>
<path d="M81.6955 9.19861H83.4126L84.5775 10.8048L85.7364 9.19861H87.4246L85.4238 11.9719L87.6864 15.0919H85.9693L84.5674 13.1589L83.1728 15.0919H81.4843L83.7211 11.9917L81.6955 9.19861Z" fill="white"/>
<path d="M7.41446 5.66776C7.14163 5.39493 6.69929 5.39493 6.42646 5.66775L0.473782 11.6204C0.200956 11.8933 0.20096 12.3356 0.473791 12.6084C0.746618 12.8813 1.18896 12.8813 1.46178 12.6084L7.41447 6.65575C7.68729 6.38293 7.68729 5.94059 7.41446 5.66776Z" fill="white"/>
<path d="M14.6515 11.2253C14.3787 10.9524 13.9363 10.9524 13.6635 11.2252L6.87103 18.0177C6.5982 18.2906 6.59821 18.7329 6.87104 19.0057C7.14387 19.2786 7.5862 19.2786 7.85903 19.0057L14.6515 12.2132C14.9243 11.9404 14.9243 11.4981 14.6515 11.2253Z" fill="white"/>
<path d="M16.3189 5.28483C16.046 5.012 15.6037 5.01199 15.3308 5.28482L8.20492 12.4107C7.9321 12.6836 7.9321 13.1259 8.20493 13.3987C8.47776 13.6716 8.92009 13.6716 9.19292 13.3987L16.3188 6.27282C16.5917 5.99999 16.5917 5.55765 16.3189 5.28483Z" fill="white"/>
<path d="M20.5918 9.5579C20.319 9.28507 19.8766 9.28506 19.6038 9.55789L15.2689 13.8927C14.9961 14.1655 14.9961 14.6079 15.269 14.8807C15.5418 15.1535 15.9841 15.1535 16.2569 14.8807L20.5918 10.5459C20.8646 10.2731 20.8646 9.83072 20.5918 9.5579Z" fill="white"/>
<path d="M14.1884 3.15458C13.9156 2.88175 13.4733 2.88174 13.2004 3.15457L9.05084 7.30415C8.77801 7.57698 8.77802 8.01932 9.05085 8.29215C9.32367 8.56498 9.76601 8.56498 10.0388 8.29215L14.1884 4.14257C14.4613 3.86974 14.4613 3.4274 14.1884 3.15458Z" fill="white"/>
<path d="M22.7099 11.6759C22.437 11.4031 21.9947 11.4031 21.7219 11.6759L20.0793 13.3185C19.8065 13.5913 19.8065 14.0336 20.0793 14.3065C20.3521 14.5793 20.7945 14.5793 21.0673 14.3065L22.7099 12.6639C22.9827 12.3911 22.9827 11.9488 22.7099 11.6759Z" fill="white"/>
<path d="M19.1024 16.0262H19.1034L19.1034 16.0042C19.104 15.988 19.104 15.9718 19.1034 15.9555L19.1034 14.7064C19.1034 14.3206 18.7906 14.0078 18.4048 14.0078C18.019 14.0078 17.7062 14.3206 17.7062 14.7064L17.7062 15.6916L11.1257 22.2722C10.8528 22.545 10.8528 22.9873 11.1257 23.2602C11.3985 23.533 11.8408 23.533 12.1137 23.2602L18.9 16.4739C19.0246 16.3492 19.0916 16.1892 19.1024 16.0262Z" fill="white"/>
<path d="M14.3175 16.3808V15.2561C14.3175 14.8703 14.0048 14.5575 13.6189 14.5575C13.2331 14.5575 12.9203 14.8703 12.9203 15.2561L12.9203 16.2413L8.99502 20.1666C8.7222 20.4394 8.7222 20.8818 8.99503 21.1546C9.26786 21.4274 9.7102 21.4274 9.98302 21.1546L14.1264 17.0112C14.2977 16.8399 14.3613 16.6018 14.3175 16.3808Z" fill="white"/>
<path d="M8.09957 9.79205L8.09958 8.66737C8.09957 8.28154 7.78679 7.96876 7.40096 7.96875C7.01512 7.96875 6.70233 8.28154 6.70234 8.66737L6.70233 9.65258L2.60416 13.7508C2.33133 14.0236 2.33133 14.4659 2.60416 14.7388C2.87699 15.0116 3.31933 15.0116 3.59216 14.7388L7.90847 10.4224C8.07976 10.2512 8.14337 10.0131 8.09957 9.79205Z" fill="white"/>
<path d="M9.76307 5.29238L9.76308 4.30717L12.0581 2.0122C12.3309 1.73937 12.3309 1.29703 12.058 1.0242C11.7852 0.751373 11.3429 0.751373 11.07 1.0242L8.55695 3.53731C8.38565 3.7086 8.32205 3.94667 8.36584 4.16769L8.36583 5.29238C8.36583 5.67821 8.67861 5.99099 9.06445 5.99099C9.45029 5.99099 9.76307 5.67821 9.76307 5.29238Z" fill="white"/>
<path d="M16.9754 10.8746L16.9754 9.88941L18.4553 8.40954C18.7281 8.13671 18.7281 7.69437 18.4553 7.42154C18.1824 7.14871 17.7401 7.14871 17.4673 7.42154L15.7693 9.11955C15.598 9.29084 15.5344 9.52893 15.5781 9.74995L15.5781 10.8746C15.5781 11.2605 15.8909 11.5732 16.2768 11.5732C16.6626 11.5732 16.9754 11.2605 16.9754 10.8746Z" fill="white"/>
<path d="M7.27834 14.8741V13.7494C7.27834 13.3636 6.96556 13.0508 6.57971 13.0508C6.19388 13.0508 5.88109 13.3636 5.88109 13.7494V14.7346L4.73456 15.8811C4.46173 16.154 4.46173 16.5963 4.73457 16.8691C5.00739 17.142 5.44973 17.142 5.72256 16.8691L7.08723 15.5045C7.25852 15.3332 7.32212 15.0951 7.27834 14.8741Z" fill="white"/>
</svg>
