<svg width="24" height="24" viewBox="0 0 24 24" fill="none" xmlns="http://www.w3.org/2000/svg">
<path d="M12.1606 23.2325C5.90825 23.2325 0.837952 18.1622 0.837952 11.9098C0.837952 5.65745 5.90825 0.587158 12.1606 0.587158C18.413 0.587158 23.4833 5.65745 23.4833 11.9098C23.4833 18.1622 18.413 23.2325 12.1606 23.2325Z" fill="white"/>
<path d="M10.6232 14.1448V9.67463L14.5521 11.9097L10.6232 14.1448ZM19.3665 8.26609C19.1944 7.61391 18.6849 7.10212 18.0372 6.92775C16.8642 6.61072 12.163 6.61072 12.163 6.61072C12.163 6.61072 7.4596 6.61072 6.28883 6.92775C5.64118 7.10212 5.13166 7.61391 4.95955 8.26609C4.64252 9.44592 4.64252 11.9097 4.64252 11.9097C4.64252 11.9097 4.64252 14.3735 4.95729 15.5534C5.12939 16.2056 5.63891 16.7173 6.28657 16.8917C7.4596 17.2087 12.1608 17.2087 12.1608 17.2087C12.1608 17.2087 16.8642 17.2087 18.035 16.8917C18.6826 16.7173 19.1922 16.2056 19.3643 15.5534C19.679 14.3735 19.679 11.9097 19.679 11.9097C19.679 11.9097 19.679 9.44592 19.3665 8.26609Z" fill="black"/>
</svg>
