<svg width="24" height="24" viewBox="0 0 24 24" fill="none" xmlns="http://www.w3.org/2000/svg">
<path d="M11.4169 23.2326C5.38525 23.2326 0.47821 18.3255 0.47821 12.294C0.47821 6.26238 5.38525 1.35535 11.4169 1.35535C12.4604 1.35535 13.4929 1.50223 14.4855 1.79182C14.8226 1.89013 15.0161 2.24303 14.9177 2.58003C14.8193 2.91718 14.4664 3.11094 14.1295 3.01223C13.2525 2.7564 12.3399 2.62666 11.4169 2.62666C6.08624 2.62666 1.74953 6.96337 1.74953 12.294C1.74953 17.6245 6.08624 21.9613 11.4169 21.9613C16.7474 21.9613 21.0842 17.6245 21.0842 12.294C21.0842 11.4862 20.9844 10.6835 20.7876 9.90826C20.7012 9.56793 20.9071 9.22209 21.2473 9.13573C21.587 9.04882 21.9334 9.25507 22.0198 9.5954C22.2425 10.4728 22.3555 11.3808 22.3555 12.294C22.3555 18.3255 17.4484 23.2326 11.4169 23.2326Z" fill="white"/>
<path d="M19.7335 7.79132C19.3824 7.79132 19.0978 7.5067 19.0978 7.15566V1.22282C19.0978 0.871778 19.3824 0.587158 19.7335 0.587158C20.0845 0.587158 20.3691 0.871778 20.3691 1.22282V7.15566C20.3691 7.5067 20.0845 7.79132 19.7335 7.79132Z" fill="white"/>
<path d="M22.6996 4.82491H16.7669C16.4158 4.82491 16.1312 4.54029 16.1312 4.18925C16.1312 3.83821 16.4158 3.55359 16.7669 3.55359H22.6996C23.0507 3.55359 23.3353 3.83821 23.3353 4.18925C23.3353 4.54029 23.0507 4.82491 22.6996 4.82491Z" fill="white"/>
<path d="M7.07007 16.171V10.4879C6.01253 11.2999 5.30059 11.7057 4.93427 11.7057C4.75937 11.7057 4.60426 11.636 4.46901 11.4965C4.33368 11.3571 4.26602 11.1957 4.26602 11.0126C4.26602 10.8001 4.3326 10.644 4.46591 10.5441C4.59906 10.4443 4.83433 10.3152 5.17156 10.1569C5.6753 9.9196 6.0781 9.6699 6.38002 9.40762C6.68179 9.1452 6.94926 8.85173 7.18251 8.52692C7.4156 8.20226 7.56754 8.00238 7.63838 7.92742C7.70915 7.85246 7.8423 7.81506 8.03807 7.81506C8.25867 7.81506 8.43559 7.90042 8.5689 8.07113C8.70205 8.24184 8.76871 8.47711 8.76871 8.77678V15.9275C8.76871 16.7643 8.48355 17.1827 7.91314 17.1827C7.65918 17.1827 7.4551 17.0973 7.30115 16.9266C7.14705 16.7559 7.07007 16.5042 7.07007 16.171Z" fill="white"/>
<path d="M10.8929 10.1943C10.8929 9.77809 11.0063 9.38562 11.2332 9.01704C11.4601 8.64862 11.7932 8.35423 12.2325 8.13339C12.6717 7.91286 13.1849 7.80237 13.772 7.80237C14.2674 7.80237 14.7025 7.86708 15.0772 7.99605C15.4519 8.12516 15.7642 8.30317 16.0139 8.53005C16.2637 8.75694 16.4489 9.01301 16.5698 9.29809C16.6905 9.58333 16.7509 9.88626 16.7509 10.2067C16.7509 10.6149 16.6457 10.9791 16.4355 11.2997C16.2252 11.6204 15.9119 11.8826 15.4955 12.0865C15.8494 12.2239 16.1428 12.4041 16.3761 12.6268C16.6092 12.8495 16.7852 13.1077 16.9039 13.4012C17.0225 13.6946 17.0819 14.0205 17.0819 14.3785C17.0819 14.9031 16.9548 15.3788 16.7009 15.8055C16.4469 16.2323 16.0743 16.5664 15.5831 16.8079C15.0917 17.0492 14.5129 17.1701 13.8468 17.1701C13.1557 17.1701 12.5645 17.0492 12.0732 16.8079C11.582 16.5664 11.2114 16.2343 10.9616 15.8117C10.7118 15.3891 10.5869 14.9155 10.5869 14.391C10.5869 13.2711 11.1156 12.5029 12.1732 12.0865C11.3196 11.6869 10.8929 11.0561 10.8929 10.1943ZM15.3706 14.3286C15.3706 14.0038 15.304 13.7207 15.1709 13.4792C15.0376 13.2377 14.8503 13.0524 14.6088 12.9233C14.3673 12.7944 14.0967 12.7298 13.797 12.7298C13.3722 12.7298 13.0162 12.8713 12.729 13.1544C12.4417 13.4376 12.2982 13.8331 12.2982 14.341C12.2982 14.6658 12.3657 14.9521 12.501 15.1997C12.6363 15.4475 12.8205 15.639 13.0538 15.7743C13.2869 15.9097 13.5471 15.9772 13.8344 15.9772C14.1258 15.9772 14.3881 15.9086 14.6212 15.7711C14.8545 15.6337 15.0376 15.4402 15.1709 15.1903C15.304 14.9405 15.3706 14.6532 15.3706 14.3286ZM13.8094 8.99532C13.418 8.99532 13.1027 9.11699 12.8632 9.36063C12.6238 9.60413 12.5043 9.91746 12.5043 10.3005C12.5043 10.6545 12.627 10.949 12.8727 11.1841C13.1182 11.4194 13.4348 11.537 13.822 11.537C14.0175 11.537 14.1955 11.5058 14.3558 11.4433C14.5161 11.3809 14.6535 11.2945 14.768 11.1841C14.8825 11.0739 14.971 10.9428 15.0334 10.7907C15.0959 10.6388 15.1271 10.4712 15.1271 10.288C15.1271 10.0424 15.0719 9.8217 14.9617 9.62601C14.8512 9.43031 14.6962 9.27621 14.4964 9.16385C14.2965 9.05149 14.0675 8.99532 13.8094 8.99532Z" fill="white"/>
</svg>
