<svg width="34" height="24" viewBox="0 0 34 24" fill="none" xmlns="http://www.w3.org/2000/svg">
<path d="M3.29968 11.9944H5.59411V15.2855H4.8417V14.2607C4.6348 14.599 4.54093 14.7212 4.3527 14.8811C3.92022 15.2574 3.39355 15.4547 2.82952 15.4547C1.2875 15.4547 0.0837708 13.9501 0.0837708 12.0133C0.0837708 10.0573 1.27808 8.53394 2.81084 8.53394C3.4408 8.53394 4.18348 8.71274 4.78534 9.68131V8.65622H5.48108V10.7626H4.75709C4.66321 10.3959 4.55034 10.1609 4.38096 9.95398C4.00484 9.49309 3.49731 9.22983 2.97064 9.22983C2.15246 9.22983 0.977143 9.92588 0.977143 11.9754C0.977143 13.5647 1.83285 14.7494 2.97991 14.7494C3.81693 14.7494 4.6067 14.063 4.7946 13.179C4.82302 13.0476 4.83212 12.9159 4.8417 12.6432H3.29968L3.29968 11.9944Z" fill="white"/>
<path d="M11.2455 15.2856H9.81606V14.3923C9.41198 15.0225 8.86648 15.3798 8.12365 15.3798C7.18333 15.3798 6.49686 14.7309 6.49686 13.8565C6.49686 12.8973 7.34314 12.4175 9.33648 12.2295C9.40257 12.2201 9.60931 12.2014 9.80679 12.1825V11.6654C9.80679 11.0921 9.36489 10.7343 8.66899 10.7343C7.93542 10.7343 7.6064 10.9789 7.45601 11.6277H6.69434C6.80705 11.1202 6.95759 10.8566 7.25852 10.5935C7.59729 10.3114 8.06729 10.161 8.61248 10.161C9.64699 10.161 10.5309 10.6406 10.5309 11.9098V14.6934H11.2455V15.2856ZM9.80679 12.6995L9.34605 12.7561C7.80387 12.9441 7.28678 13.2262 7.28678 13.8656C7.28678 14.3923 7.74752 14.8248 8.33039 14.8248C9.22377 14.8248 9.80679 13.9786 9.80679 13.5177V12.6995Z" fill="white"/>
<path d="M13.3374 11.1762C13.5631 10.8285 14.0145 10.1326 14.9359 10.1326C15.6036 10.1326 15.9891 10.4808 16.1114 11.1858C16.3089 10.8475 16.4029 10.7252 16.591 10.5654C16.92 10.2737 17.2773 10.1326 17.6723 10.1326C18.4434 10.1326 18.8947 10.631 18.8947 11.5054V14.6933H19.5906V15.2856H18.1707V11.7689C18.1707 11.0635 17.9357 10.7439 17.4465 10.7439C16.5721 10.7439 16.1114 11.797 16.1114 12.1356V14.6933H16.8354V15.2856H15.3874V11.6558C15.3874 11.0259 15.1523 10.7439 14.6633 10.7439C13.8829 10.7439 13.3281 11.7124 13.3281 12.1733V14.6933H14.0427V15.2856H11.8704V14.6933H12.604V10.8189H11.8704V10.2172H13.3374L13.3374 11.1762Z" fill="white"/>
<path d="M20.3429 8.3645H21.7534V11.2892C21.9415 10.9319 22.5245 10.1702 23.4083 10.1702C24.5461 10.1702 25.4112 11.3269 25.4112 12.8125C25.4112 14.1946 24.4898 15.3511 23.3896 15.3511C22.4963 15.3511 22.0638 14.7588 21.7534 14.3357V15.2855H20.3147V14.6932H21.0294V8.95725H20.343L20.3429 8.3645ZM21.7534 13.1508C21.7534 13.9877 22.4305 14.7307 23.2016 14.7307C24.0667 14.7307 24.6213 13.95 24.6213 12.7373C24.6213 11.5713 24.0667 10.7718 23.2298 10.7718C22.4963 10.7718 21.7534 11.59 21.7534 12.3046V13.1508Z" fill="white"/>
<path d="M25.9839 8.3645H27.4226V14.6932H28.0996V15.2855H25.9746V14.6932H26.6986V8.95725H25.9839V8.3645Z" fill="white"/>
<path d="M32.9872 13.8937C32.8838 14.2416 32.7709 14.4485 32.5828 14.6645C32.1785 15.1349 31.6237 15.3886 30.9936 15.3886C29.6208 15.3886 28.6618 14.3168 28.6618 12.7747C28.6618 11.2891 29.6208 10.1511 30.8714 10.1511C32.1315 10.1511 33.0999 11.1293 33.0999 12.897H29.4421C29.5079 13.6397 29.6773 14.0537 30.0252 14.392C30.2884 14.6459 30.5988 14.7682 30.9749 14.7682C31.5579 14.7682 31.9152 14.5047 32.169 13.8937H32.9872ZM32.2632 12.3419C32.2067 11.7121 32.0656 11.3643 31.7742 11.0822C31.5485 10.8753 31.2664 10.7717 30.9372 10.7717C30.3261 10.7717 29.8182 11.1855 29.5927 11.8533C29.555 11.9752 29.5079 12.1635 29.4892 12.3419H32.2632Z" fill="white"/>
<path d="M2.43458 16.4906H4.0237L5.84781 22.0385H6.34638V23.1199H4.82304L4.39056 21.6812H2.05846L1.62582 23.1199H0.0838013V22.0385H0.591628L2.43458 16.4906ZM3.23377 17.7317L2.34998 20.6657H4.0989L3.23377 17.7317Z" fill="white"/>
<path d="M6.30881 18.0891H8.32114V19.0671H7.81331L8.50905 22.029L9.33665 18.0891H10.6343L11.4711 21.9819L12.1388 19.0671H11.6498V18.0891H13.6715V19.0671H13.2389L12.1574 23.1199H10.8223L9.98546 19.6217L9.19553 23.1199H7.84157L6.73187 19.0671H6.30881V18.0891Z" fill="white"/>
<path d="M18.4294 22.1416H18.862V23.1197H17.301V22.5274C16.7839 23.0445 16.3984 23.223 15.7778 23.223C14.7716 23.223 14.0005 22.546 14.0005 21.6529C14.0005 20.1763 15.6649 20.0165 17.2729 19.8661C17.2635 19.0951 17.0754 18.8976 16.3419 18.8976C15.8248 18.8976 15.4675 19.1892 15.4392 19.6592L14.2168 19.6216C14.2826 18.6155 15.0913 17.9667 16.2855 17.9667C17.6771 17.9667 18.4294 18.5968 18.4294 19.7439V22.1416ZM17.2541 20.7407C16.0692 20.8534 15.2982 20.957 15.2982 21.6529C15.2982 22.0664 15.6273 22.3391 16.1257 22.3391C16.7651 22.3391 17.2541 21.8595 17.2541 21.2297V20.7407Z" fill="white"/>
<path d="M21.4572 18.8695C21.7863 18.2301 22.153 17.9667 22.7171 17.9667C22.8865 17.9667 23.0368 17.9855 23.2814 18.0326V19.2081C23.0557 19.1611 22.877 19.1422 22.6702 19.1422C22.0119 19.1422 21.4572 19.6122 21.4572 20.1859V22.1416H22.059V23.1197H19.7365V22.1416H20.2253V19.067H19.7457V18.089H21.4572L21.4572 18.8695Z" fill="white"/>
<path d="M28.3405 21.4647C28.1147 22.5554 27.2027 23.2325 25.9803 23.2325C24.5698 23.2325 23.5354 22.1325 23.5354 20.5902C23.5354 19.067 24.5792 17.9386 25.9897 17.9386C26.7889 17.9386 27.494 18.3149 27.9267 18.9637C28.3874 19.6688 28.4062 20.3362 28.4251 20.8442H24.7954C24.9177 22.1512 25.7734 22.2168 26.0084 22.2168C26.5068 22.2168 26.836 21.9818 27.0333 21.4647H28.3405ZM27.0521 19.9789C26.9677 19.3395 26.582 18.9918 25.9897 18.9918C25.4442 18.9918 25.0211 19.3585 24.8613 19.9789H27.0521Z" fill="white"/>
<path d="M0.102665 0.587158H2.6321C3.76063 0.587158 4.18354 0.624681 4.50331 0.765955C4.94536 0.95387 5.51882 1.48996 5.51882 2.36434C5.51882 3.03198 5.3025 3.36101 4.66311 3.70888C5.41537 4.01954 5.76339 4.48954 5.76339 5.36393C5.76339 6.47377 4.90754 7.21645 3.62877 7.21645H0.0838318V6.13501H0.601079V1.66845H0.102665V0.587158ZM1.9552 1.66845V3.2764H3.26206C3.82625 3.2764 4.21195 2.92868 4.21195 2.43011C4.21195 1.98821 3.77931 1.66845 3.16819 1.66845L1.9552 1.66845ZM1.9552 4.32016V6.13501H3.34683C3.93912 6.13501 4.40001 5.74962 4.40001 5.24164C4.40001 4.68687 3.9297 4.32016 3.21497 4.32016H1.9552Z" fill="white"/>
<path d="M11.3141 5.56126C11.0885 6.65196 10.1763 7.32902 8.95391 7.32902C7.54344 7.32902 6.50909 6.22905 6.50909 4.68672C6.50909 3.16354 7.55286 2.03516 8.96349 2.03516C9.76268 2.03516 10.4677 2.41144 10.9005 3.06024C11.3611 3.7654 11.3799 4.43273 11.3987 4.94072H7.76918C7.89147 6.24774 8.74717 6.31336 8.98201 6.31336C9.48058 6.31336 9.80961 6.07836 10.0073 5.56126H11.3141ZM10.0258 4.07544C9.94132 3.43605 9.55578 3.08834 8.96349 3.08834C8.41782 3.08834 7.99492 3.45505 7.83496 4.07544H10.0258Z" fill="white"/>
</svg>
