<svg width="21" height="24" viewBox="0 0 21 24" fill="none" xmlns="http://www.w3.org/2000/svg">
<path d="M3.71899 21.5888C3.67497 22.585 3.00934 23.2327 2.11896 23.2327C1.65181 23.2327 1.25063 23.0521 0.933333 22.6952C0.66887 22.3999 0.527771 22.0164 0.527771 21.5844C0.527771 21.148 0.695216 20.7469 1.01706 20.4296C1.32115 20.1253 1.69582 19.9755 2.15423 19.9755C2.79336 19.9755 3.28708 20.2886 3.52942 20.8305H2.96979C2.76255 20.5663 2.47152 20.4296 2.11896 20.4296C1.82363 20.4296 1.55034 20.5439 1.34319 20.7556C1.12283 20.9803 0.999461 21.2891 0.999461 21.5888C0.999461 21.9193 1.11398 22.219 1.31677 22.4307C1.53275 22.6553 1.82801 22.7832 2.11896 22.7832C2.59057 22.7832 2.9608 22.5318 3.19891 22.0295H1.77962V21.5888H3.71899Z" fill="white"/>
<path d="M4.20685 23.1712H3.72632L4.95166 20.0372H5.39255L6.61782 23.1712H6.11979L5.77599 22.2589H4.55948L4.20685 23.1712ZM5.17219 20.6279L4.72247 21.8178H5.61292L5.17219 20.6279Z" fill="white"/>
<path d="M6.7887 23.1712V20.0372H7.463L8.37104 22.4615L9.27901 20.0372H9.94465V23.1712H9.51712L9.54793 20.4515L8.52981 23.1712H8.20799L7.19424 20.4515L7.22504 23.1712H6.7887Z" fill="white"/>
<path d="M11.94 23.2327C11.4769 23.2327 11.0847 23.0609 10.7763 22.7348C10.4809 22.4219 10.331 22.0339 10.331 21.5713C10.331 21.1393 10.4941 20.7425 10.8071 20.4384C11.1157 20.134 11.5036 19.9755 11.9488 19.9755C12.6804 19.9755 13.3061 20.4561 13.5091 21.2273H12.6804C12.513 20.9187 12.2616 20.7556 11.9531 20.7556C11.4858 20.7556 11.1201 21.1169 11.1201 21.5756C11.1201 22.0736 11.508 22.4571 11.94 22.4571C12.2352 22.4571 12.4953 22.2984 12.6628 22.0075H13.4959C13.2886 22.77 12.6936 23.2327 11.94 23.2327Z" fill="white"/>
<path d="M14.2704 23.1712H13.4329L14.6361 20.0372H15.2621L16.4653 23.1712H15.619L15.4647 22.7171H14.4291L14.2704 23.1712ZM14.9489 21.0643L14.6361 22.0691H15.2577L14.9489 21.0643Z" fill="white"/>
<path d="M16.5258 23.1712V20.0372H17.5659C17.8964 20.0372 18.1478 20.0593 18.3595 20.2091C18.6372 20.4029 18.7826 20.6983 18.7826 21.0862C18.7826 21.5932 18.5181 21.9722 18.073 22.0955L18.8398 23.1712H17.8921L17.2927 22.1618V23.1712L16.5258 23.1712ZM17.4426 21.4829C17.8217 21.4829 18.0067 21.3859 18.0067 21.1038C18.0067 20.8437 17.8438 20.7381 17.5043 20.7381H17.2927V21.4829L17.4426 21.4829Z" fill="white"/>
<path d="M19.1874 23.1712V20.0372H20.8888V20.7294H19.9543V21.2361H20.8888V21.9325H19.9543V22.4792H20.8888V23.1712H19.1874Z" fill="white"/>
<path d="M20.3332 11.4295C20.2491 11.382 20.1564 11.3499 20.0569 11.3361C20.0335 11.3322 20.0102 11.3313 19.9865 11.329C19.9739 11.3284 19.9618 11.3252 19.9489 11.3252H19.9135C19.8819 11.3245 19.8503 11.3229 19.8191 11.3252H13.6909C13.2573 11.3252 12.9056 11.6767 12.9056 12.1102C12.9056 12.5438 13.2573 12.8955 13.6909 12.8955H16.0719C16.1504 12.8961 16.2139 12.9599 16.2139 13.0386C16.2139 13.0841 16.1899 13.1215 16.1567 13.1476C14.8513 13.8449 13.1721 14.2675 11.3351 14.2675C10.888 14.2675 10.4509 14.2414 10.0253 14.1937V15.9762C10.3961 16.0034 10.7723 16.0188 11.1543 16.0188C13.7112 16.0188 16.0371 15.3937 17.7806 14.3725L17.781 14.3749C17.8026 14.3635 17.827 14.357 17.8529 14.357C17.9382 14.357 18.0074 14.4262 18.0074 14.5115C18.0074 14.5271 18.0045 14.542 17.9998 14.5565L17.6366 15.5429C17.4454 16.0619 17.7108 16.6373 18.2299 16.8284C18.3441 16.8707 18.4609 16.8905 18.576 16.8905C18.9835 16.8905 19.3663 16.64 19.5155 16.2352L20.8296 12.6681C21.0081 12.1836 20.7854 11.6538 20.3332 11.4295Z" fill="white"/>
<path d="M11.3351 4.69382C13.1866 4.69375 14.8816 5.12015 16.1915 5.82722C16.1915 5.82722 17.0232 6.42589 17.419 5.85123C17.8732 5.19178 16.9663 4.78139 16.9663 4.78139C15.3409 4.0171 13.3305 3.56511 11.1543 3.56519C10.7723 3.56519 10.3961 3.58059 10.0253 3.60777V4.7678C10.4509 4.72017 10.888 4.69382 11.3351 4.69382Z" fill="white"/>
<path d="M1.92502 0.587158C1.16049 0.587158 0.540314 1.2072 0.540314 1.97188V17.0808C0.540314 17.8457 1.16049 18.4654 1.92502 18.4654H10.0253V15.9762C5.15157 15.62 1.36606 12.9878 1.36606 9.792C1.36606 6.59604 5.15157 3.964 10.0253 3.60775V0.587158H1.92502Z" fill="white"/>
<path d="M3.81918 9.48065C3.81918 11.8395 6.49922 13.7985 10.0255 14.1935V4.7677C6.49922 5.16261 3.81918 7.12154 3.81918 9.48065Z" fill="white"/>
</svg>
