<svg width="33" height="33" viewBox="0 0 33 33" fill="none" xmlns="http://www.w3.org/2000/svg">
<g clip-path="url(#clip0_2010_372)">
<path d="M6.55521 6.30633L30.16 2.85552C28.8412 1.71409 27.1242 1.02393 25.2479 1.02393H8.05983C3.90885 1.02393 0.554443 4.38626 0.554443 8.52725V25.7106C0.554443 29.4357 3.2716 32.5326 6.82958 33.1166L3.71414 10.1376C3.44862 8.29719 4.74082 6.57178 6.55521 6.30633Z" fill="black"/>
<path d="M30.1603 2.85571L6.55549 6.30653C4.7411 6.57198 3.4489 8.29739 3.71442 10.1378L6.82987 33.1168C7.22815 33.1787 7.64413 33.2229 8.06011 33.2229H25.2481C29.3991 33.2229 32.7535 29.8606 32.7535 25.7196V8.52745C32.7535 6.26229 31.7534 4.23604 30.1603 2.85571Z" fill="white"/>
<path d="M30.1599 2.85571L30.0803 2.87341C31.7 4.28913 32.6735 6.37732 32.6735 8.52745V25.6842C32.6735 29.7898 29.328 33.1344 25.2213 33.1344H8.05093C7.66149 33.1344 7.21011 33.0902 6.81183 33.0283L6.82068 33.1168C7.23666 33.1875 7.63494 33.2229 8.04207 33.2229H25.2036C29.3634 33.2229 32.7444 29.8429 32.7444 25.6842V8.52745C32.7532 6.33308 31.815 4.28913 30.1599 2.85571Z" fill="#B3B3B3"/>
<path d="M20.61 11.7126C20.4596 11.5622 20.2914 11.4825 20.0524 11.4825C19.7338 11.4825 19.4948 11.6329 19.3532 11.9515C19.0346 11.571 18.5921 11.394 18.0345 11.394C17.3618 11.394 16.8042 11.6595 16.3351 12.155C15.866 12.6859 15.6625 13.2964 15.6625 14.0308C15.6625 14.7652 15.8926 15.4023 16.3351 15.9067C16.8042 16.4375 17.3618 16.6676 18.0345 16.6676C18.5921 16.6676 19.0257 16.4906 19.3532 16.1102C19.5037 16.4287 19.7338 16.5791 20.0524 16.5791C20.2825 16.5791 20.4596 16.4906 20.61 16.3491C20.7605 16.2075 20.8136 16.0305 20.8136 15.7916V12.1904C20.8401 12.0665 20.7516 11.863 20.61 11.7126ZM19.0257 14.9599C18.8487 15.1899 18.5832 15.3138 18.2646 15.3138C17.946 15.3138 17.6804 15.1988 17.5034 14.9599C17.3264 14.7298 17.2113 14.429 17.2113 14.0485C17.2113 13.6946 17.2999 13.4026 17.5034 13.1725C17.6804 12.9425 17.946 12.8186 18.2646 12.8186C18.5832 12.8186 18.8487 12.9336 19.0257 13.1725C19.2028 13.4026 19.3178 13.7034 19.3178 14.0485C19.2913 14.4025 19.2028 14.7298 19.0257 14.9599Z" fill="black"/>
<path d="M22.5661 16.3934C22.4157 16.5438 22.2475 16.6235 22.0085 16.6235C21.7696 16.6235 21.6014 16.535 21.4509 16.3934C21.3005 16.243 21.2474 16.0749 21.2474 15.836V9.39443C21.2474 9.19092 21.3093 9.01395 21.4509 8.83699C21.6014 8.68657 21.7696 8.60693 22.0085 8.60693C22.2475 8.60693 22.4157 8.69542 22.5661 8.83699C22.7166 8.98741 22.7697 9.15553 22.7697 9.39443V15.836C22.7697 16.0749 22.7166 16.2518 22.5661 16.3934Z" fill="black"/>
<path d="M27.6287 12.1816C27.1331 11.6507 26.5135 11.4207 25.7524 11.4207C24.9912 11.4207 24.3805 11.6861 23.876 12.1816C23.4069 12.6771 23.1414 13.323 23.1414 14.084C23.1414 14.8449 23.3715 15.4555 23.876 15.9864C24.3451 16.4819 24.9912 16.7473 25.7524 16.7473C26.5135 16.7473 27.1242 16.4819 27.6287 15.9864C28.0978 15.4909 28.3279 14.8449 28.3279 14.1105C28.3633 13.323 28.1332 12.6771 27.6287 12.1816ZM26.5489 14.96C26.3719 15.19 26.1064 15.3139 25.7878 15.3139C25.4692 15.3139 25.2036 15.1989 25.0266 14.96C24.8496 14.7299 24.7345 14.4291 24.7345 14.0486C24.7345 13.6947 24.823 13.4027 25.0266 13.1726C25.2036 12.9426 25.4692 12.8187 25.7878 12.8187C26.1064 12.8187 26.3719 12.9337 26.5489 13.1726C26.7259 13.4027 26.841 13.7035 26.841 14.0486C26.8145 14.4025 26.7259 14.7299 26.5489 14.96Z" fill="black"/>
<path d="M14.8129 11.5979C15.3439 10.8988 15.636 10.4299 15.636 10.191C15.636 9.63355 15.282 9.34155 14.5828 9.34155H10.8655C10.5734 9.34155 10.3344 9.40349 10.1928 9.54506C10.0424 9.69548 9.96272 9.8636 9.96272 10.076C9.96272 10.306 10.0512 10.483 10.1928 10.6069C10.3433 10.7573 10.5734 10.8104 10.8655 10.8104H13.4145L10.1397 15.0221C9.93617 15.2876 9.82111 15.553 9.82111 15.7565C9.82111 16.3671 10.2282 16.6679 11.0514 16.6679H14.8837C15.4944 16.6679 15.7953 16.4025 15.7953 15.907C15.7953 15.3761 15.5032 15.146 14.8837 15.146H12.0692L14.8129 11.5979Z" fill="black"/>
<path d="M12.9896 20.7029H12.0249V22.6937H12.9896C13.2817 22.6937 13.5207 22.6053 13.6888 22.4017C13.8658 22.2248 13.9544 21.9593 13.9544 21.7027C13.9544 21.4107 13.8658 21.1718 13.6888 21.0037C13.5207 20.7914 13.2906 20.7029 12.9896 20.7029Z" fill="black"/>
<path d="M17.7689 22.543C17.4769 22.543 17.2379 22.658 17.0697 22.8615C16.8927 23.0916 16.8042 23.357 16.8042 23.6844C16.8042 24.0118 16.8927 24.2949 17.0697 24.5073C17.2467 24.7373 17.4769 24.8258 17.7689 24.8258C18.061 24.8258 18.3 24.7108 18.4681 24.5073C18.6451 24.2772 18.7336 24.0118 18.7336 23.6844C18.7336 23.357 18.6451 23.0739 18.4681 22.8615C18.2911 22.658 18.061 22.543 17.7689 22.543Z" fill="black"/>
<path d="M24.5043 17.8623H10.653C10.1839 17.8623 9.80334 18.2428 9.80334 18.7117V26.8167C9.80334 27.2857 10.1839 27.6662 10.653 27.6662H21.5748C21.4597 27.5511 21.3977 27.4361 21.3977 27.2857C21.3977 27.1707 21.4243 27.0556 21.4863 26.9052L22.0173 25.7638L20.5835 22.1891C20.5569 22.1006 20.5215 21.9856 20.5215 21.8706C20.5215 21.7201 20.5835 21.5786 20.7251 21.4901C20.8402 21.3751 20.9906 21.3131 21.1322 21.3131C21.4509 21.3131 21.6633 21.4635 21.7783 21.7821L22.6545 24.2154L23.5927 21.7821C23.7078 21.4901 23.9113 21.3131 24.2388 21.3131C24.3893 21.3131 24.5309 21.3751 24.646 21.4901C24.761 21.6051 24.8495 21.7201 24.8495 21.8706C24.8495 21.9856 24.823 22.1006 24.7876 22.1891L22.6811 27.3122C22.6191 27.4627 22.566 27.5777 22.4775 27.6662H24.4955C24.9646 27.6662 25.3452 27.2857 25.3452 26.8167V18.7117C25.3452 18.2162 24.9646 17.8623 24.5043 17.8623ZM14.7243 23.304C14.2818 23.711 13.7331 23.888 13.087 23.888H12.0337V25.4099C12.0337 25.6399 11.9718 25.8169 11.8302 25.9408C11.7151 26.0558 11.5381 26.1443 11.3345 26.1443C11.1309 26.1443 10.9539 26.0823 10.8389 25.9408C10.7238 25.8257 10.6353 25.6222 10.6353 25.4099V20.1452C10.6353 19.6497 10.8654 19.4107 11.3699 19.4107H13.0427C13.7419 19.4107 14.2995 19.6143 14.7686 20.0213C15.2111 20.4283 15.4412 20.9857 15.4412 21.6317C15.4235 22.3661 15.1934 22.897 14.7243 23.304ZM20.141 25.3833C20.141 25.5868 20.079 25.7373 19.9374 25.8788C19.7869 26.0292 19.6453 26.0823 19.4417 26.0823C19.1497 26.0823 18.9107 25.9319 18.7691 25.6399C18.477 25.9939 18.0699 26.1708 17.5388 26.1708C16.9281 26.1708 16.3971 25.9408 15.99 25.4718C15.5828 25.0028 15.3439 24.4189 15.3439 23.7199C15.3439 23.0208 15.5474 22.4634 15.99 21.9679C16.3971 21.4989 16.9281 21.2689 17.5388 21.2689C18.0699 21.2689 18.4505 21.4458 18.7691 21.7998C18.9196 21.5078 19.1231 21.3574 19.4417 21.3574C19.6453 21.3574 19.8223 21.4193 19.9374 21.5609C20.0878 21.7113 20.141 21.8529 20.141 22.0564V25.3833Z" fill="black"/>
</g>
<defs>
<clipPath id="clip0_2010_372">
<rect width="32.1988" height="32.1988" fill="white" transform="translate(0.163696 0.616455)"/>
</clipPath>
</defs>
</svg>
