<svg width="85" height="85" viewBox="0 0 85 85" fill="none" xmlns="http://www.w3.org/2000/svg">
<path opacity="0.2" d="M42.079 11.2039C35.8372 11.2039 29.7355 13.0548 24.5456 16.5226C19.3557 19.9904 15.3106 24.9193 12.922 30.686C10.5333 36.4528 9.90835 42.7983 11.1261 48.9202C12.3438 55.0421 15.3495 60.6655 19.7632 65.0791C24.1768 69.4928 29.8002 72.4985 35.9221 73.7163C42.044 74.934 48.3896 74.309 54.1563 71.9203C59.923 69.5317 64.8519 65.4866 68.3197 60.2967C71.7875 55.1068 73.6384 49.0051 73.6384 42.7633C73.6384 34.3932 70.3134 26.366 64.3949 20.4474C58.4763 14.5289 50.4491 11.2039 42.079 11.2039ZM36.8191 53.2831V32.2435L52.5988 42.7633L36.8191 53.2831Z" fill="url(#paint0_linear_2017_325)"/>
<path d="M42.3712 8.86621C35.6092 8.86621 28.9991 10.8714 23.3766 14.6281C17.7542 18.3849 13.3721 23.7246 10.7844 29.9718C8.1967 36.2191 7.51964 43.0935 8.83884 49.7255C10.158 56.3576 13.4143 62.4496 18.1957 67.231C22.9772 72.0125 29.0691 75.2687 35.7012 76.5879C42.3333 77.9071 49.2076 77.23 55.4549 74.6423C61.7022 72.0546 67.0418 67.6725 70.7986 62.0501C74.5554 56.4277 76.5605 49.8175 76.5605 43.0555C76.551 33.9909 72.9458 25.3003 66.5361 18.8906C60.1265 12.4809 51.4358 8.87578 42.3712 8.86621ZM42.3712 71.9849C36.6495 71.9849 31.0563 70.2883 26.2989 67.1095C21.5415 63.9307 17.8335 59.4125 15.6439 54.1263C13.4543 48.8402 12.8814 43.0234 13.9977 37.4117C15.1139 31.7999 17.8692 26.6452 21.915 22.5993C25.9609 18.5535 31.1156 15.7982 36.7274 14.682C42.3391 13.5657 48.1559 14.1386 53.442 16.3282C58.7282 18.5178 63.2463 22.2258 66.4251 26.9832C69.604 31.7406 71.3006 37.3338 71.3006 43.0555C71.2919 50.7254 68.2412 58.0787 62.8178 63.5021C57.3944 68.9255 50.0411 71.9762 42.3712 71.9849ZM54.3506 40.8661L38.5709 30.3463C38.1748 30.082 37.7143 29.9302 37.2386 29.9072C36.7629 29.8841 36.2899 29.9907 35.87 30.2154C35.4502 30.4402 35.0992 30.7748 34.8546 31.1834C34.6101 31.5921 34.4811 32.0595 34.4814 32.5357V53.5753C34.4811 54.0516 34.6101 54.5189 34.8546 54.9276C35.0992 55.3362 35.4502 55.6708 35.87 55.8956C36.2899 56.1204 36.7629 56.2269 37.2386 56.2039C37.7143 56.1808 38.1748 56.0291 38.5709 55.7647L54.3506 45.245C54.7114 45.0049 55.0072 44.6794 55.2118 44.2974C55.4164 43.9155 55.5235 43.4888 55.5235 43.0555C55.5235 42.6222 55.4164 42.1956 55.2118 41.8136C55.0072 41.4317 54.7114 41.1062 54.3506 40.8661ZM39.7413 48.6606V37.4669L48.1505 43.0555L39.7413 48.6606Z" fill="url(#paint1_linear_2017_325)"/>
<defs>
<linearGradient id="paint0_linear_2017_325" x1="10.5197" y1="74.3227" x2="73.6384" y2="11.2039" gradientUnits="userSpaceOnUse">
<stop stop-color="#FF3849"/>
<stop offset="1" stop-color="#FF9D00"/>
</linearGradient>
<linearGradient id="paint1_linear_2017_325" x1="8.18189" y1="77.2449" x2="76.5605" y2="8.86621" gradientUnits="userSpaceOnUse">
<stop stop-color="#F49A25"/>
<stop offset="1" stop-color="#FF9D00"/>
</linearGradient>
</defs>
</svg>
